<mxfile host="app.diagrams.net" agent="Mozilla/5.0 (Windows NT 10.0; Win64; x64) AppleWebKit/537.36 (KHTML, like Gecko) Chrome/130.0.0.0 Safari/537.36" version="24.8.4" pages="2">
  <diagram name="空间矢量电压等效" id="nmngKGhftoSC0VJmCKeP">
    <mxGraphModel dx="954" dy="558" grid="1" gridSize="10" guides="1" tooltips="1" connect="1" arrows="1" fold="1" page="1" pageScale="1" pageWidth="827" pageHeight="1169" math="0" shadow="0">
      <root>
        <mxCell id="0" />
        <mxCell id="1" parent="0" />
        <mxCell id="5_YuhG84WlwaUPd1VmNm-36" value="" style="group" vertex="1" connectable="0" parent="1">
          <mxGeometry x="80" y="48" width="461.74364097595895" height="190" as="geometry" />
        </mxCell>
        <mxCell id="5_YuhG84WlwaUPd1VmNm-1" value="" style="verticalLabelPosition=bottom;shadow=0;dashed=0;align=center;html=1;verticalAlign=top;shape=mxgraph.electrical.mosfets1.p-channel_mosfet_1;fillColor=#dae8fc;strokeColor=#6c8ebf;" vertex="1" parent="5_YuhG84WlwaUPd1VmNm-36">
          <mxGeometry x="24.019525055452213" y="26.559139784946236" width="45.6370976053592" height="51.0752688172043" as="geometry" />
        </mxCell>
        <mxCell id="5_YuhG84WlwaUPd1VmNm-2" value="" style="verticalLabelPosition=bottom;shadow=0;dashed=0;align=center;html=1;verticalAlign=top;shape=mxgraph.electrical.mosfets1.p-channel_mosfet_1;fillColor=#f5f5f5;strokeColor=#666666;fontColor=#333333;" vertex="1" parent="5_YuhG84WlwaUPd1VmNm-36">
          <mxGeometry x="24.019525055452213" y="128.70967741935485" width="45.6370976053592" height="51.0752688172043" as="geometry" />
        </mxCell>
        <mxCell id="5_YuhG84WlwaUPd1VmNm-3" style="edgeStyle=orthogonalEdgeStyle;rounded=0;orthogonalLoop=1;jettySize=auto;html=1;exitX=0.7;exitY=0;exitDx=0;exitDy=0;exitPerimeter=0;endArrow=oval;endFill=1;" edge="1" source="5_YuhG84WlwaUPd1VmNm-4" parent="5_YuhG84WlwaUPd1VmNm-36">
          <mxGeometry relative="1" as="geometry">
            <mxPoint x="152.28378885156704" y="16.344086021505376" as="targetPoint" />
          </mxGeometry>
        </mxCell>
        <mxCell id="5_YuhG84WlwaUPd1VmNm-4" value="" style="verticalLabelPosition=bottom;shadow=0;dashed=0;align=center;html=1;verticalAlign=top;shape=mxgraph.electrical.mosfets1.p-channel_mosfet_1;fillColor=#dae8fc;strokeColor=#6c8ebf;" vertex="1" parent="5_YuhG84WlwaUPd1VmNm-36">
          <mxGeometry x="120.09762527726107" y="26.559139784946236" width="45.6370976053592" height="51.0752688172043" as="geometry" />
        </mxCell>
        <mxCell id="5_YuhG84WlwaUPd1VmNm-5" style="edgeStyle=orthogonalEdgeStyle;rounded=0;orthogonalLoop=1;jettySize=auto;html=1;exitX=0.7;exitY=1;exitDx=0;exitDy=0;exitPerimeter=0;endArrow=oval;endFill=1;" edge="1" source="5_YuhG84WlwaUPd1VmNm-6" parent="5_YuhG84WlwaUPd1VmNm-36">
          <mxGeometry relative="1" as="geometry">
            <mxPoint x="152.28378885156704" y="190" as="targetPoint" />
          </mxGeometry>
        </mxCell>
        <mxCell id="5_YuhG84WlwaUPd1VmNm-6" value="" style="verticalLabelPosition=bottom;shadow=0;dashed=0;align=center;html=1;verticalAlign=top;shape=mxgraph.electrical.mosfets1.p-channel_mosfet_1;fillColor=#f5f5f5;strokeColor=#666666;fontColor=#333333;" vertex="1" parent="5_YuhG84WlwaUPd1VmNm-36">
          <mxGeometry x="120.09762527726107" y="128.70967741935485" width="45.6370976053592" height="51.0752688172043" as="geometry" />
        </mxCell>
        <mxCell id="5_YuhG84WlwaUPd1VmNm-7" value="" style="verticalLabelPosition=bottom;shadow=0;dashed=0;align=center;html=1;verticalAlign=top;shape=mxgraph.electrical.mosfets1.p-channel_mosfet_1;fillColor=#dae8fc;strokeColor=#6c8ebf;" vertex="1" parent="5_YuhG84WlwaUPd1VmNm-36">
          <mxGeometry x="216.1757254990699" y="26.559139784946236" width="45.6370976053592" height="51.0752688172043" as="geometry" />
        </mxCell>
        <mxCell id="5_YuhG84WlwaUPd1VmNm-8" value="" style="verticalLabelPosition=bottom;shadow=0;dashed=0;align=center;html=1;verticalAlign=top;shape=mxgraph.electrical.mosfets1.p-channel_mosfet_1;fillColor=#f5f5f5;strokeColor=#666666;fontColor=#333333;" vertex="1" parent="5_YuhG84WlwaUPd1VmNm-36">
          <mxGeometry x="216.1757254990699" y="128.70967741935485" width="45.6370976053592" height="51.0752688172043" as="geometry" />
        </mxCell>
        <mxCell id="5_YuhG84WlwaUPd1VmNm-9" style="edgeStyle=orthogonalEdgeStyle;rounded=0;orthogonalLoop=1;jettySize=auto;html=1;exitX=0.7;exitY=0;exitDx=0;exitDy=0;exitPerimeter=0;entryX=0.7;entryY=0;entryDx=0;entryDy=0;entryPerimeter=0;endArrow=none;endFill=0;" edge="1" source="5_YuhG84WlwaUPd1VmNm-1" target="5_YuhG84WlwaUPd1VmNm-7" parent="5_YuhG84WlwaUPd1VmNm-36">
          <mxGeometry relative="1" as="geometry">
            <Array as="points">
              <mxPoint x="56.11594202898551" y="14.074074074074073" />
              <mxPoint x="248.05797101449278" y="14.074074074074073" />
            </Array>
          </mxGeometry>
        </mxCell>
        <mxCell id="5_YuhG84WlwaUPd1VmNm-10" style="edgeStyle=orthogonalEdgeStyle;rounded=0;orthogonalLoop=1;jettySize=auto;html=1;exitX=0.7;exitY=1;exitDx=0;exitDy=0;exitPerimeter=0;entryX=0.7;entryY=0;entryDx=0;entryDy=0;entryPerimeter=0;endArrow=none;endFill=0;" edge="1" source="5_YuhG84WlwaUPd1VmNm-1" target="5_YuhG84WlwaUPd1VmNm-2" parent="5_YuhG84WlwaUPd1VmNm-36">
          <mxGeometry relative="1" as="geometry" />
        </mxCell>
        <mxCell id="5_YuhG84WlwaUPd1VmNm-11" style="edgeStyle=orthogonalEdgeStyle;rounded=0;orthogonalLoop=1;jettySize=auto;html=1;exitX=0.7;exitY=1;exitDx=0;exitDy=0;exitPerimeter=0;entryX=0.7;entryY=0;entryDx=0;entryDy=0;entryPerimeter=0;endArrow=none;endFill=0;" edge="1" source="5_YuhG84WlwaUPd1VmNm-4" target="5_YuhG84WlwaUPd1VmNm-6" parent="5_YuhG84WlwaUPd1VmNm-36">
          <mxGeometry relative="1" as="geometry" />
        </mxCell>
        <mxCell id="5_YuhG84WlwaUPd1VmNm-12" style="edgeStyle=orthogonalEdgeStyle;rounded=0;orthogonalLoop=1;jettySize=auto;html=1;exitX=0.7;exitY=1;exitDx=0;exitDy=0;exitPerimeter=0;entryX=0.7;entryY=0;entryDx=0;entryDy=0;entryPerimeter=0;endArrow=none;endFill=0;" edge="1" source="5_YuhG84WlwaUPd1VmNm-7" target="5_YuhG84WlwaUPd1VmNm-8" parent="5_YuhG84WlwaUPd1VmNm-36">
          <mxGeometry relative="1" as="geometry" />
        </mxCell>
        <mxCell id="5_YuhG84WlwaUPd1VmNm-13" style="edgeStyle=orthogonalEdgeStyle;rounded=0;orthogonalLoop=1;jettySize=auto;html=1;exitX=0.7;exitY=1;exitDx=0;exitDy=0;exitPerimeter=0;entryX=0.7;entryY=1;entryDx=0;entryDy=0;entryPerimeter=0;endArrow=none;endFill=0;" edge="1" source="5_YuhG84WlwaUPd1VmNm-2" target="5_YuhG84WlwaUPd1VmNm-8" parent="5_YuhG84WlwaUPd1VmNm-36">
          <mxGeometry relative="1" as="geometry">
            <Array as="points">
              <mxPoint x="56.11594202898551" y="190" />
              <mxPoint x="248.05797101449278" y="190" />
            </Array>
          </mxGeometry>
        </mxCell>
        <mxCell id="5_YuhG84WlwaUPd1VmNm-20" value="" style="endArrow=none;html=1;rounded=0;startArrow=oval;startFill=1;" edge="1" parent="5_YuhG84WlwaUPd1VmNm-36">
          <mxGeometry width="50" height="50" relative="1" as="geometry">
            <mxPoint x="55.72529812864914" y="14.232974910394265" as="sourcePoint" />
            <mxPoint x="4.8039050110904435" y="14.232974910394265" as="targetPoint" />
          </mxGeometry>
        </mxCell>
        <mxCell id="5_YuhG84WlwaUPd1VmNm-21" value="" style="endArrow=none;html=1;rounded=0;startArrow=oval;startFill=1;" edge="1" parent="5_YuhG84WlwaUPd1VmNm-36">
          <mxGeometry width="50" height="50" relative="1" as="geometry">
            <mxPoint x="56.205688629758185" y="190" as="sourcePoint" />
            <mxPoint x="4.8039050110904435" y="190" as="targetPoint" />
          </mxGeometry>
        </mxCell>
        <mxCell id="5_YuhG84WlwaUPd1VmNm-23" value="" style="group" vertex="1" connectable="0" parent="5_YuhG84WlwaUPd1VmNm-36">
          <mxGeometry x="336.2726185521268" y="57.204301075268816" width="125.47102242383214" height="111.72043010752687" as="geometry" />
        </mxCell>
        <mxCell id="5_YuhG84WlwaUPd1VmNm-24" value="" style="group" vertex="1" connectable="0" parent="5_YuhG84WlwaUPd1VmNm-23">
          <mxGeometry width="125.47102242383214" height="111.72043010752687" as="geometry" />
        </mxCell>
        <mxCell id="5_YuhG84WlwaUPd1VmNm-25" style="edgeStyle=orthogonalEdgeStyle;rounded=0;orthogonalLoop=1;jettySize=auto;html=1;exitX=0;exitY=0.645;exitDx=0;exitDy=0;exitPerimeter=0;endArrow=oval;endFill=1;" edge="1" parent="5_YuhG84WlwaUPd1VmNm-24" source="5_YuhG84WlwaUPd1VmNm-26">
          <mxGeometry relative="1" as="geometry">
            <mxPoint x="-86.4695579754238" y="51.07526881720429" as="targetPoint" />
            <Array as="points">
              <mxPoint x="-43.235145099813984" y="91.93548387096773" />
              <mxPoint x="-43.235145099813984" y="51.07526881720429" />
            </Array>
          </mxGeometry>
        </mxCell>
        <mxCell id="5_YuhG84WlwaUPd1VmNm-26" value="" style="pointerEvents=1;verticalLabelPosition=bottom;shadow=0;dashed=0;align=center;html=1;verticalAlign=top;shape=mxgraph.electrical.inductors.inductor_5;rotation=-30;fillColor=#ffe6cc;strokeColor=#d79b00;" vertex="1" parent="5_YuhG84WlwaUPd1VmNm-24">
          <mxGeometry x="-2.1802406508308674" y="72.01612903225806" width="57.64686013308532" height="7.150537634408601" as="geometry" />
        </mxCell>
        <mxCell id="5_YuhG84WlwaUPd1VmNm-27" style="edgeStyle=orthogonalEdgeStyle;rounded=0;orthogonalLoop=1;jettySize=auto;html=1;exitX=1;exitY=0.645;exitDx=0;exitDy=0;exitPerimeter=0;endArrow=oval;endFill=1;" edge="1" parent="5_YuhG84WlwaUPd1VmNm-24" source="5_YuhG84WlwaUPd1VmNm-28">
          <mxGeometry relative="1" as="geometry">
            <mxPoint x="-278.6257584190415" y="30.645161290322577" as="targetPoint" />
            <Array as="points">
              <mxPoint x="51.88217411977678" y="-10.215053763440858" />
              <mxPoint x="-43.235145099813984" y="-10.215053763440858" />
              <mxPoint x="-43.235145099813984" y="31.155913978494617" />
            </Array>
          </mxGeometry>
        </mxCell>
        <mxCell id="5_YuhG84WlwaUPd1VmNm-28" value="" style="pointerEvents=1;verticalLabelPosition=bottom;shadow=0;dashed=0;align=center;html=1;verticalAlign=top;shape=mxgraph.electrical.inductors.inductor_5;rotation=-90;fillColor=#ffe6cc;strokeColor=#d79b00;" vertex="1" parent="5_YuhG84WlwaUPd1VmNm-24">
          <mxGeometry x="21.83928440462135" y="27.069892473118276" width="57.64686013308532" height="7.150537634408601" as="geometry" />
        </mxCell>
        <mxCell id="5_YuhG84WlwaUPd1VmNm-29" style="edgeStyle=orthogonalEdgeStyle;rounded=0;orthogonalLoop=1;jettySize=auto;html=1;exitX=1;exitY=0.645;exitDx=0;exitDy=0;exitPerimeter=0;endArrow=oval;endFill=1;" edge="1" parent="5_YuhG84WlwaUPd1VmNm-24" source="5_YuhG84WlwaUPd1VmNm-30">
          <mxGeometry relative="1" as="geometry">
            <mxPoint x="-182.54765819723264" y="66.39784946236558" as="targetPoint" />
            <Array as="points">
              <mxPoint x="101.36239573400835" y="127.68817204301074" />
              <mxPoint x="-62.45076514417576" y="127.68817204301074" />
              <mxPoint x="-62.45076514417576" y="66.90860215053762" />
            </Array>
          </mxGeometry>
        </mxCell>
        <mxCell id="5_YuhG84WlwaUPd1VmNm-30" value="" style="pointerEvents=1;verticalLabelPosition=bottom;shadow=0;dashed=0;align=center;html=1;verticalAlign=top;shape=mxgraph.electrical.inductors.inductor_5;rotation=30;fillColor=#ffe6cc;strokeColor=#d79b00;" vertex="1" parent="5_YuhG84WlwaUPd1VmNm-24">
          <mxGeometry x="48.260761965618784" y="72.01612903225806" width="57.64686013308532" height="7.150537634408601" as="geometry" />
        </mxCell>
        <mxCell id="5_YuhG84WlwaUPd1VmNm-31" value="A" style="text;html=1;align=center;verticalAlign=middle;resizable=0;points=[];autosize=1;strokeColor=none;fillColor=none;" vertex="1" parent="5_YuhG84WlwaUPd1VmNm-24">
          <mxGeometry x="52.84368734619906" width="30" height="30" as="geometry" />
        </mxCell>
        <mxCell id="5_YuhG84WlwaUPd1VmNm-32" value="B" style="text;html=1;align=center;verticalAlign=middle;resizable=0;points=[];autosize=1;strokeColor=none;fillColor=none;" vertex="1" parent="5_YuhG84WlwaUPd1VmNm-24">
          <mxGeometry x="95.47102242383214" y="81.72043010752687" width="30" height="30" as="geometry" />
        </mxCell>
        <mxCell id="5_YuhG84WlwaUPd1VmNm-33" value="C" style="text;html=1;align=center;verticalAlign=middle;resizable=0;points=[];autosize=1;strokeColor=none;fillColor=none;" vertex="1" parent="5_YuhG84WlwaUPd1VmNm-24">
          <mxGeometry x="4.804637235294619" y="81.72043010752687" width="30" height="30" as="geometry" />
        </mxCell>
        <mxCell id="5_YuhG84WlwaUPd1VmNm-39" value="N" style="text;html=1;align=center;verticalAlign=middle;resizable=0;points=[];autosize=1;strokeColor=none;fillColor=none;" vertex="1" parent="5_YuhG84WlwaUPd1VmNm-24">
          <mxGeometry x="48.25755093939862" y="37.79569892473117" width="30" height="30" as="geometry" />
        </mxCell>
        <mxCell id="5_YuhG84WlwaUPd1VmNm-37" value="" style="endArrow=classic;startArrow=classic;html=1;rounded=0;" edge="1" parent="5_YuhG84WlwaUPd1VmNm-36">
          <mxGeometry width="50" height="50" relative="1" as="geometry">
            <mxPoint x="12.753623188405799" y="128.70740740740737" as="sourcePoint" />
            <mxPoint x="12.753623188405799" y="65.37407407407407" as="targetPoint" />
          </mxGeometry>
        </mxCell>
        <mxCell id="5_YuhG84WlwaUPd1VmNm-38" value="Vdc" style="text;html=1;align=center;verticalAlign=middle;resizable=0;points=[];autosize=1;strokeColor=none;fillColor=none;" vertex="1" parent="5_YuhG84WlwaUPd1VmNm-36">
          <mxGeometry x="12.753623188405799" y="95.16888888888889" width="40" height="30" as="geometry" />
        </mxCell>
        <mxCell id="5_YuhG84WlwaUPd1VmNm-55" value="" style="group" vertex="1" connectable="0" parent="1">
          <mxGeometry x="670" y="46" width="140" height="192" as="geometry" />
        </mxCell>
        <mxCell id="5_YuhG84WlwaUPd1VmNm-46" style="edgeStyle=orthogonalEdgeStyle;rounded=0;orthogonalLoop=1;jettySize=auto;html=1;exitX=1;exitY=0.645;exitDx=0;exitDy=0;exitPerimeter=0;endArrow=oval;endFill=1;" edge="1" parent="5_YuhG84WlwaUPd1VmNm-55" source="5_YuhG84WlwaUPd1VmNm-41">
          <mxGeometry relative="1" as="geometry">
            <mxPoint x="91" y="72" as="targetPoint" />
          </mxGeometry>
        </mxCell>
        <mxCell id="5_YuhG84WlwaUPd1VmNm-41" value="" style="pointerEvents=1;verticalLabelPosition=bottom;shadow=0;dashed=0;align=center;html=1;verticalAlign=top;shape=mxgraph.electrical.inductors.inductor_5;direction=south;" vertex="1" parent="5_YuhG84WlwaUPd1VmNm-55">
          <mxGeometry x="86" y="12" width="14" height="53" as="geometry" />
        </mxCell>
        <mxCell id="5_YuhG84WlwaUPd1VmNm-43" value="" style="pointerEvents=1;verticalLabelPosition=bottom;shadow=0;dashed=0;align=center;html=1;verticalAlign=top;shape=mxgraph.electrical.inductors.inductor_5;direction=south;" vertex="1" parent="5_YuhG84WlwaUPd1VmNm-55">
          <mxGeometry x="46" y="92" width="14" height="53" as="geometry" />
        </mxCell>
        <mxCell id="5_YuhG84WlwaUPd1VmNm-44" value="" style="pointerEvents=1;verticalLabelPosition=bottom;shadow=0;dashed=0;align=center;html=1;verticalAlign=top;shape=mxgraph.electrical.inductors.inductor_5;direction=south;" vertex="1" parent="5_YuhG84WlwaUPd1VmNm-55">
          <mxGeometry x="126" y="92" width="14" height="53" as="geometry" />
        </mxCell>
        <mxCell id="5_YuhG84WlwaUPd1VmNm-45" style="edgeStyle=orthogonalEdgeStyle;rounded=0;orthogonalLoop=1;jettySize=auto;html=1;exitX=0;exitY=0.645;exitDx=0;exitDy=0;exitPerimeter=0;entryX=0;entryY=0.645;entryDx=0;entryDy=0;entryPerimeter=0;endArrow=none;endFill=0;" edge="1" parent="5_YuhG84WlwaUPd1VmNm-55" source="5_YuhG84WlwaUPd1VmNm-43" target="5_YuhG84WlwaUPd1VmNm-44">
          <mxGeometry relative="1" as="geometry" />
        </mxCell>
        <mxCell id="5_YuhG84WlwaUPd1VmNm-47" style="edgeStyle=orthogonalEdgeStyle;rounded=0;orthogonalLoop=1;jettySize=auto;html=1;exitX=1;exitY=0.645;exitDx=0;exitDy=0;exitPerimeter=0;entryX=1;entryY=0.645;entryDx=0;entryDy=0;entryPerimeter=0;endArrow=none;endFill=0;" edge="1" parent="5_YuhG84WlwaUPd1VmNm-55" source="5_YuhG84WlwaUPd1VmNm-43" target="5_YuhG84WlwaUPd1VmNm-44">
          <mxGeometry relative="1" as="geometry" />
        </mxCell>
        <mxCell id="5_YuhG84WlwaUPd1VmNm-50" style="edgeStyle=orthogonalEdgeStyle;rounded=0;orthogonalLoop=1;jettySize=auto;html=1;exitX=0;exitY=0.5;exitDx=0;exitDy=0;exitPerimeter=0;endArrow=none;endFill=0;" edge="1" parent="5_YuhG84WlwaUPd1VmNm-55" source="5_YuhG84WlwaUPd1VmNm-48">
          <mxGeometry relative="1" as="geometry">
            <mxPoint x="96" y="162" as="targetPoint" />
            <Array as="points">
              <mxPoint x="15" y="192" />
              <mxPoint x="96" y="192" />
            </Array>
          </mxGeometry>
        </mxCell>
        <mxCell id="5_YuhG84WlwaUPd1VmNm-48" value="" style="verticalLabelPosition=bottom;shadow=0;dashed=0;align=center;fillColor=strokeColor;html=1;verticalAlign=top;strokeWidth=1;shape=mxgraph.electrical.miscellaneous.monocell_battery;direction=north;" vertex="1" parent="5_YuhG84WlwaUPd1VmNm-55">
          <mxGeometry y="72" width="30" height="40" as="geometry" />
        </mxCell>
        <mxCell id="5_YuhG84WlwaUPd1VmNm-49" style="edgeStyle=orthogonalEdgeStyle;rounded=0;orthogonalLoop=1;jettySize=auto;html=1;exitX=1;exitY=0.5;exitDx=0;exitDy=0;exitPerimeter=0;entryX=0;entryY=0.645;entryDx=0;entryDy=0;entryPerimeter=0;endArrow=none;endFill=0;" edge="1" parent="5_YuhG84WlwaUPd1VmNm-55" source="5_YuhG84WlwaUPd1VmNm-48" target="5_YuhG84WlwaUPd1VmNm-41">
          <mxGeometry relative="1" as="geometry" />
        </mxCell>
        <mxCell id="5_YuhG84WlwaUPd1VmNm-51" value="A" style="text;html=1;align=center;verticalAlign=middle;resizable=0;points=[];autosize=1;strokeColor=none;fillColor=none;" vertex="1" parent="5_YuhG84WlwaUPd1VmNm-55">
          <mxGeometry x="101" width="30" height="30" as="geometry" />
        </mxCell>
        <mxCell id="5_YuhG84WlwaUPd1VmNm-52" value="N" style="text;html=1;align=center;verticalAlign=middle;resizable=0;points=[];autosize=1;strokeColor=none;fillColor=none;" vertex="1" parent="5_YuhG84WlwaUPd1VmNm-55">
          <mxGeometry x="91" y="50" width="30" height="30" as="geometry" />
        </mxCell>
        <mxCell id="5_YuhG84WlwaUPd1VmNm-53" value="B" style="text;html=1;align=center;verticalAlign=middle;resizable=0;points=[];autosize=1;strokeColor=none;fillColor=none;" vertex="1" parent="5_YuhG84WlwaUPd1VmNm-55">
          <mxGeometry x="46" y="140" width="30" height="30" as="geometry" />
        </mxCell>
        <mxCell id="5_YuhG84WlwaUPd1VmNm-54" value="C" style="text;html=1;align=center;verticalAlign=middle;resizable=0;points=[];autosize=1;strokeColor=none;fillColor=none;" vertex="1" parent="5_YuhG84WlwaUPd1VmNm-55">
          <mxGeometry x="110" y="140" width="30" height="30" as="geometry" />
        </mxCell>
        <mxCell id="5_YuhG84WlwaUPd1VmNm-56" value="" style="shape=flexArrow;endArrow=classic;html=1;rounded=0;" edge="1" parent="1">
          <mxGeometry width="50" height="50" relative="1" as="geometry">
            <mxPoint x="560" y="141.5" as="sourcePoint" />
            <mxPoint x="640" y="140" as="targetPoint" />
          </mxGeometry>
        </mxCell>
        <mxCell id="5_YuhG84WlwaUPd1VmNm-57" value="" style="shape=table;startSize=0;container=1;collapsible=0;childLayout=tableLayout;" vertex="1" parent="1">
          <mxGeometry x="40" y="518" width="730" height="400" as="geometry" />
        </mxCell>
        <mxCell id="5_YuhG84WlwaUPd1VmNm-138" style="shape=tableRow;horizontal=0;startSize=0;swimlaneHead=0;swimlaneBody=0;strokeColor=inherit;top=0;left=0;bottom=0;right=0;collapsible=0;dropTarget=0;fillColor=none;points=[[0,0.5],[1,0.5]];portConstraint=eastwest;" vertex="1" parent="5_YuhG84WlwaUPd1VmNm-57">
          <mxGeometry width="730" height="40" as="geometry" />
        </mxCell>
        <mxCell id="5_YuhG84WlwaUPd1VmNm-187" value="角度" style="shape=partialRectangle;html=1;whiteSpace=wrap;connectable=0;strokeColor=inherit;overflow=hidden;fillColor=none;top=0;left=0;bottom=0;right=0;pointerEvents=1;" vertex="1" parent="5_YuhG84WlwaUPd1VmNm-138">
          <mxGeometry width="50" height="40" as="geometry">
            <mxRectangle width="50" height="40" as="alternateBounds" />
          </mxGeometry>
        </mxCell>
        <mxCell id="5_YuhG84WlwaUPd1VmNm-177" value="矢量" style="shape=partialRectangle;html=1;whiteSpace=wrap;connectable=0;strokeColor=inherit;overflow=hidden;fillColor=none;top=0;left=0;bottom=0;right=0;pointerEvents=1;" vertex="1" parent="5_YuhG84WlwaUPd1VmNm-138">
          <mxGeometry x="50" width="50" height="40" as="geometry">
            <mxRectangle width="50" height="40" as="alternateBounds" />
          </mxGeometry>
        </mxCell>
        <mxCell id="5_YuhG84WlwaUPd1VmNm-139" value="上管开关状态" style="shape=partialRectangle;html=1;whiteSpace=wrap;connectable=0;strokeColor=inherit;overflow=hidden;fillColor=none;top=0;left=0;bottom=0;right=0;pointerEvents=1;" vertex="1" parent="5_YuhG84WlwaUPd1VmNm-138">
          <mxGeometry x="100" width="50" height="40" as="geometry">
            <mxRectangle width="50" height="40" as="alternateBounds" />
          </mxGeometry>
        </mxCell>
        <mxCell id="5_YuhG84WlwaUPd1VmNm-140" value="上管开关状态" style="shape=partialRectangle;html=1;whiteSpace=wrap;connectable=0;strokeColor=inherit;overflow=hidden;fillColor=none;top=0;left=0;bottom=0;right=0;pointerEvents=1;" vertex="1" parent="5_YuhG84WlwaUPd1VmNm-138">
          <mxGeometry x="150" width="60" height="40" as="geometry">
            <mxRectangle width="60" height="40" as="alternateBounds" />
          </mxGeometry>
        </mxCell>
        <mxCell id="5_YuhG84WlwaUPd1VmNm-141" value="上管开关状态" style="shape=partialRectangle;html=1;whiteSpace=wrap;connectable=0;strokeColor=inherit;overflow=hidden;fillColor=none;top=0;left=0;bottom=0;right=0;pointerEvents=1;" vertex="1" parent="5_YuhG84WlwaUPd1VmNm-138">
          <mxGeometry x="210" width="60" height="40" as="geometry">
            <mxRectangle width="60" height="40" as="alternateBounds" />
          </mxGeometry>
        </mxCell>
        <mxCell id="5_YuhG84WlwaUPd1VmNm-142" value="相电压" style="shape=partialRectangle;html=1;whiteSpace=wrap;connectable=0;strokeColor=inherit;overflow=hidden;fillColor=none;top=0;left=0;bottom=0;right=0;pointerEvents=1;" vertex="1" parent="5_YuhG84WlwaUPd1VmNm-138">
          <mxGeometry x="270" width="60" height="40" as="geometry">
            <mxRectangle width="60" height="40" as="alternateBounds" />
          </mxGeometry>
        </mxCell>
        <mxCell id="5_YuhG84WlwaUPd1VmNm-143" value="相电压" style="shape=partialRectangle;html=1;whiteSpace=wrap;connectable=0;strokeColor=inherit;overflow=hidden;fillColor=none;top=0;left=0;bottom=0;right=0;pointerEvents=1;" vertex="1" parent="5_YuhG84WlwaUPd1VmNm-138">
          <mxGeometry x="330" width="60" height="40" as="geometry">
            <mxRectangle width="60" height="40" as="alternateBounds" />
          </mxGeometry>
        </mxCell>
        <mxCell id="5_YuhG84WlwaUPd1VmNm-144" value="相电压" style="shape=partialRectangle;html=1;whiteSpace=wrap;connectable=0;strokeColor=inherit;overflow=hidden;fillColor=none;top=0;left=0;bottom=0;right=0;pointerEvents=1;" vertex="1" parent="5_YuhG84WlwaUPd1VmNm-138">
          <mxGeometry x="390" width="60" height="40" as="geometry">
            <mxRectangle width="60" height="40" as="alternateBounds" />
          </mxGeometry>
        </mxCell>
        <mxCell id="5_YuhG84WlwaUPd1VmNm-145" value="线电压" style="shape=partialRectangle;html=1;whiteSpace=wrap;connectable=0;strokeColor=inherit;overflow=hidden;fillColor=none;top=0;left=0;bottom=0;right=0;pointerEvents=1;" vertex="1" parent="5_YuhG84WlwaUPd1VmNm-138">
          <mxGeometry x="450" width="60" height="40" as="geometry">
            <mxRectangle width="60" height="40" as="alternateBounds" />
          </mxGeometry>
        </mxCell>
        <mxCell id="5_YuhG84WlwaUPd1VmNm-146" value="线电压" style="shape=partialRectangle;html=1;whiteSpace=wrap;connectable=0;strokeColor=inherit;overflow=hidden;fillColor=none;top=0;left=0;bottom=0;right=0;pointerEvents=1;" vertex="1" parent="5_YuhG84WlwaUPd1VmNm-138">
          <mxGeometry x="510" width="60" height="40" as="geometry">
            <mxRectangle width="60" height="40" as="alternateBounds" />
          </mxGeometry>
        </mxCell>
        <mxCell id="5_YuhG84WlwaUPd1VmNm-147" value="线电压" style="shape=partialRectangle;html=1;whiteSpace=wrap;connectable=0;strokeColor=inherit;overflow=hidden;fillColor=none;top=0;left=0;bottom=0;right=0;pointerEvents=1;" vertex="1" parent="5_YuhG84WlwaUPd1VmNm-138">
          <mxGeometry x="570" width="50" height="40" as="geometry">
            <mxRectangle width="50" height="40" as="alternateBounds" />
          </mxGeometry>
        </mxCell>
        <mxCell id="5_YuhG84WlwaUPd1VmNm-148" value="矢量合成" style="shape=partialRectangle;html=1;whiteSpace=wrap;connectable=0;strokeColor=inherit;overflow=hidden;fillColor=none;top=0;left=0;bottom=0;right=0;pointerEvents=1;" vertex="1" parent="5_YuhG84WlwaUPd1VmNm-138">
          <mxGeometry x="620" width="110" height="40" as="geometry">
            <mxRectangle width="110" height="40" as="alternateBounds" />
          </mxGeometry>
        </mxCell>
        <mxCell id="5_YuhG84WlwaUPd1VmNm-58" value="" style="shape=tableRow;horizontal=0;startSize=0;swimlaneHead=0;swimlaneBody=0;strokeColor=inherit;top=0;left=0;bottom=0;right=0;collapsible=0;dropTarget=0;fillColor=none;points=[[0,0.5],[1,0.5]];portConstraint=eastwest;" vertex="1" parent="5_YuhG84WlwaUPd1VmNm-57">
          <mxGeometry y="40" width="730" height="40" as="geometry" />
        </mxCell>
        <mxCell id="5_YuhG84WlwaUPd1VmNm-188" value="角度" style="shape=partialRectangle;html=1;whiteSpace=wrap;connectable=0;strokeColor=inherit;overflow=hidden;fillColor=none;top=0;left=0;bottom=0;right=0;pointerEvents=1;" vertex="1" parent="5_YuhG84WlwaUPd1VmNm-58">
          <mxGeometry width="50" height="40" as="geometry">
            <mxRectangle width="50" height="40" as="alternateBounds" />
          </mxGeometry>
        </mxCell>
        <mxCell id="5_YuhG84WlwaUPd1VmNm-178" value="U" style="shape=partialRectangle;html=1;whiteSpace=wrap;connectable=0;strokeColor=inherit;overflow=hidden;fillColor=none;top=0;left=0;bottom=0;right=0;pointerEvents=1;" vertex="1" parent="5_YuhG84WlwaUPd1VmNm-58">
          <mxGeometry x="50" width="50" height="40" as="geometry">
            <mxRectangle width="50" height="40" as="alternateBounds" />
          </mxGeometry>
        </mxCell>
        <mxCell id="5_YuhG84WlwaUPd1VmNm-59" value="Sa" style="shape=partialRectangle;html=1;whiteSpace=wrap;connectable=0;strokeColor=inherit;overflow=hidden;fillColor=none;top=0;left=0;bottom=0;right=0;pointerEvents=1;" vertex="1" parent="5_YuhG84WlwaUPd1VmNm-58">
          <mxGeometry x="100" width="50" height="40" as="geometry">
            <mxRectangle width="50" height="40" as="alternateBounds" />
          </mxGeometry>
        </mxCell>
        <mxCell id="5_YuhG84WlwaUPd1VmNm-60" value="Sb" style="shape=partialRectangle;html=1;whiteSpace=wrap;connectable=0;strokeColor=inherit;overflow=hidden;fillColor=none;top=0;left=0;bottom=0;right=0;pointerEvents=1;" vertex="1" parent="5_YuhG84WlwaUPd1VmNm-58">
          <mxGeometry x="150" width="60" height="40" as="geometry">
            <mxRectangle width="60" height="40" as="alternateBounds" />
          </mxGeometry>
        </mxCell>
        <mxCell id="5_YuhG84WlwaUPd1VmNm-61" value="Sc" style="shape=partialRectangle;html=1;whiteSpace=wrap;connectable=0;strokeColor=inherit;overflow=hidden;fillColor=none;top=0;left=0;bottom=0;right=0;pointerEvents=1;" vertex="1" parent="5_YuhG84WlwaUPd1VmNm-58">
          <mxGeometry x="210" width="60" height="40" as="geometry">
            <mxRectangle width="60" height="40" as="alternateBounds" />
          </mxGeometry>
        </mxCell>
        <mxCell id="5_YuhG84WlwaUPd1VmNm-62" value="VAN" style="shape=partialRectangle;html=1;whiteSpace=wrap;connectable=0;strokeColor=inherit;overflow=hidden;fillColor=none;top=0;left=0;bottom=0;right=0;pointerEvents=1;" vertex="1" parent="5_YuhG84WlwaUPd1VmNm-58">
          <mxGeometry x="270" width="60" height="40" as="geometry">
            <mxRectangle width="60" height="40" as="alternateBounds" />
          </mxGeometry>
        </mxCell>
        <mxCell id="5_YuhG84WlwaUPd1VmNm-96" value="VBN" style="shape=partialRectangle;html=1;whiteSpace=wrap;connectable=0;strokeColor=inherit;overflow=hidden;fillColor=none;top=0;left=0;bottom=0;right=0;pointerEvents=1;" vertex="1" parent="5_YuhG84WlwaUPd1VmNm-58">
          <mxGeometry x="330" width="60" height="40" as="geometry">
            <mxRectangle width="60" height="40" as="alternateBounds" />
          </mxGeometry>
        </mxCell>
        <mxCell id="5_YuhG84WlwaUPd1VmNm-110" value="VCN" style="shape=partialRectangle;html=1;whiteSpace=wrap;connectable=0;strokeColor=inherit;overflow=hidden;fillColor=none;top=0;left=0;bottom=0;right=0;pointerEvents=1;" vertex="1" parent="5_YuhG84WlwaUPd1VmNm-58">
          <mxGeometry x="390" width="60" height="40" as="geometry">
            <mxRectangle width="60" height="40" as="alternateBounds" />
          </mxGeometry>
        </mxCell>
        <mxCell id="5_YuhG84WlwaUPd1VmNm-103" value="VAB" style="shape=partialRectangle;html=1;whiteSpace=wrap;connectable=0;strokeColor=inherit;overflow=hidden;fillColor=none;top=0;left=0;bottom=0;right=0;pointerEvents=1;" vertex="1" parent="5_YuhG84WlwaUPd1VmNm-58">
          <mxGeometry x="450" width="60" height="40" as="geometry">
            <mxRectangle width="60" height="40" as="alternateBounds" />
          </mxGeometry>
        </mxCell>
        <mxCell id="5_YuhG84WlwaUPd1VmNm-124" value="VBC" style="shape=partialRectangle;html=1;whiteSpace=wrap;connectable=0;strokeColor=inherit;overflow=hidden;fillColor=none;top=0;left=0;bottom=0;right=0;pointerEvents=1;" vertex="1" parent="5_YuhG84WlwaUPd1VmNm-58">
          <mxGeometry x="510" width="60" height="40" as="geometry">
            <mxRectangle width="60" height="40" as="alternateBounds" />
          </mxGeometry>
        </mxCell>
        <mxCell id="5_YuhG84WlwaUPd1VmNm-117" value="VCA" style="shape=partialRectangle;html=1;whiteSpace=wrap;connectable=0;strokeColor=inherit;overflow=hidden;fillColor=none;top=0;left=0;bottom=0;right=0;pointerEvents=1;" vertex="1" parent="5_YuhG84WlwaUPd1VmNm-58">
          <mxGeometry x="570" width="50" height="40" as="geometry">
            <mxRectangle width="50" height="40" as="alternateBounds" />
          </mxGeometry>
        </mxCell>
        <mxCell id="5_YuhG84WlwaUPd1VmNm-131" value="Vout" style="shape=partialRectangle;html=1;whiteSpace=wrap;connectable=0;strokeColor=inherit;overflow=hidden;fillColor=none;top=0;left=0;bottom=0;right=0;pointerEvents=1;" vertex="1" parent="5_YuhG84WlwaUPd1VmNm-58">
          <mxGeometry x="620" width="110" height="40" as="geometry">
            <mxRectangle width="110" height="40" as="alternateBounds" />
          </mxGeometry>
        </mxCell>
        <mxCell id="5_YuhG84WlwaUPd1VmNm-78" style="shape=tableRow;horizontal=0;startSize=0;swimlaneHead=0;swimlaneBody=0;strokeColor=inherit;top=0;left=0;bottom=0;right=0;collapsible=0;dropTarget=0;fillColor=none;points=[[0,0.5],[1,0.5]];portConstraint=eastwest;" vertex="1" parent="5_YuhG84WlwaUPd1VmNm-57">
          <mxGeometry y="80" width="730" height="40" as="geometry" />
        </mxCell>
        <mxCell id="5_YuhG84WlwaUPd1VmNm-189" value="0" style="shape=partialRectangle;html=1;whiteSpace=wrap;connectable=0;strokeColor=inherit;overflow=hidden;fillColor=none;top=0;left=0;bottom=0;right=0;pointerEvents=1;" vertex="1" parent="5_YuhG84WlwaUPd1VmNm-78">
          <mxGeometry width="50" height="40" as="geometry">
            <mxRectangle width="50" height="40" as="alternateBounds" />
          </mxGeometry>
        </mxCell>
        <mxCell id="5_YuhG84WlwaUPd1VmNm-179" value="U0" style="shape=partialRectangle;html=1;whiteSpace=wrap;connectable=0;strokeColor=inherit;overflow=hidden;fillColor=none;top=0;left=0;bottom=0;right=0;pointerEvents=1;" vertex="1" parent="5_YuhG84WlwaUPd1VmNm-78">
          <mxGeometry x="50" width="50" height="40" as="geometry">
            <mxRectangle width="50" height="40" as="alternateBounds" />
          </mxGeometry>
        </mxCell>
        <mxCell id="5_YuhG84WlwaUPd1VmNm-79" value="0" style="shape=partialRectangle;html=1;whiteSpace=wrap;connectable=0;strokeColor=inherit;overflow=hidden;fillColor=none;top=0;left=0;bottom=0;right=0;pointerEvents=1;" vertex="1" parent="5_YuhG84WlwaUPd1VmNm-78">
          <mxGeometry x="100" width="50" height="40" as="geometry">
            <mxRectangle width="50" height="40" as="alternateBounds" />
          </mxGeometry>
        </mxCell>
        <mxCell id="5_YuhG84WlwaUPd1VmNm-80" value="0" style="shape=partialRectangle;html=1;whiteSpace=wrap;connectable=0;strokeColor=inherit;overflow=hidden;fillColor=none;top=0;left=0;bottom=0;right=0;pointerEvents=1;" vertex="1" parent="5_YuhG84WlwaUPd1VmNm-78">
          <mxGeometry x="150" width="60" height="40" as="geometry">
            <mxRectangle width="60" height="40" as="alternateBounds" />
          </mxGeometry>
        </mxCell>
        <mxCell id="5_YuhG84WlwaUPd1VmNm-81" value="0" style="shape=partialRectangle;html=1;whiteSpace=wrap;connectable=0;strokeColor=inherit;overflow=hidden;fillColor=none;top=0;left=0;bottom=0;right=0;pointerEvents=1;" vertex="1" parent="5_YuhG84WlwaUPd1VmNm-78">
          <mxGeometry x="210" width="60" height="40" as="geometry">
            <mxRectangle width="60" height="40" as="alternateBounds" />
          </mxGeometry>
        </mxCell>
        <mxCell id="5_YuhG84WlwaUPd1VmNm-82" value="0" style="shape=partialRectangle;html=1;whiteSpace=wrap;connectable=0;strokeColor=inherit;overflow=hidden;fillColor=none;top=0;left=0;bottom=0;right=0;pointerEvents=1;" vertex="1" parent="5_YuhG84WlwaUPd1VmNm-78">
          <mxGeometry x="270" width="60" height="40" as="geometry">
            <mxRectangle width="60" height="40" as="alternateBounds" />
          </mxGeometry>
        </mxCell>
        <mxCell id="5_YuhG84WlwaUPd1VmNm-97" value="0" style="shape=partialRectangle;html=1;whiteSpace=wrap;connectable=0;strokeColor=inherit;overflow=hidden;fillColor=none;top=0;left=0;bottom=0;right=0;pointerEvents=1;" vertex="1" parent="5_YuhG84WlwaUPd1VmNm-78">
          <mxGeometry x="330" width="60" height="40" as="geometry">
            <mxRectangle width="60" height="40" as="alternateBounds" />
          </mxGeometry>
        </mxCell>
        <mxCell id="5_YuhG84WlwaUPd1VmNm-111" value="0" style="shape=partialRectangle;html=1;whiteSpace=wrap;connectable=0;strokeColor=inherit;overflow=hidden;fillColor=none;top=0;left=0;bottom=0;right=0;pointerEvents=1;" vertex="1" parent="5_YuhG84WlwaUPd1VmNm-78">
          <mxGeometry x="390" width="60" height="40" as="geometry">
            <mxRectangle width="60" height="40" as="alternateBounds" />
          </mxGeometry>
        </mxCell>
        <mxCell id="5_YuhG84WlwaUPd1VmNm-104" value="0" style="shape=partialRectangle;html=1;whiteSpace=wrap;connectable=0;strokeColor=inherit;overflow=hidden;fillColor=none;top=0;left=0;bottom=0;right=0;pointerEvents=1;" vertex="1" parent="5_YuhG84WlwaUPd1VmNm-78">
          <mxGeometry x="450" width="60" height="40" as="geometry">
            <mxRectangle width="60" height="40" as="alternateBounds" />
          </mxGeometry>
        </mxCell>
        <mxCell id="5_YuhG84WlwaUPd1VmNm-125" value="0" style="shape=partialRectangle;html=1;whiteSpace=wrap;connectable=0;strokeColor=inherit;overflow=hidden;fillColor=none;top=0;left=0;bottom=0;right=0;pointerEvents=1;" vertex="1" parent="5_YuhG84WlwaUPd1VmNm-78">
          <mxGeometry x="510" width="60" height="40" as="geometry">
            <mxRectangle width="60" height="40" as="alternateBounds" />
          </mxGeometry>
        </mxCell>
        <mxCell id="5_YuhG84WlwaUPd1VmNm-118" value="0" style="shape=partialRectangle;html=1;whiteSpace=wrap;connectable=0;strokeColor=inherit;overflow=hidden;fillColor=none;top=0;left=0;bottom=0;right=0;pointerEvents=1;" vertex="1" parent="5_YuhG84WlwaUPd1VmNm-78">
          <mxGeometry x="570" width="50" height="40" as="geometry">
            <mxRectangle width="50" height="40" as="alternateBounds" />
          </mxGeometry>
        </mxCell>
        <mxCell id="5_YuhG84WlwaUPd1VmNm-132" value="0" style="shape=partialRectangle;html=1;whiteSpace=wrap;connectable=0;strokeColor=inherit;overflow=hidden;fillColor=none;top=0;left=0;bottom=0;right=0;pointerEvents=1;" vertex="1" parent="5_YuhG84WlwaUPd1VmNm-78">
          <mxGeometry x="620" width="110" height="40" as="geometry">
            <mxRectangle width="110" height="40" as="alternateBounds" />
          </mxGeometry>
        </mxCell>
        <mxCell id="5_YuhG84WlwaUPd1VmNm-63" value="" style="shape=tableRow;horizontal=0;startSize=0;swimlaneHead=0;swimlaneBody=0;strokeColor=inherit;top=0;left=0;bottom=0;right=0;collapsible=0;dropTarget=0;fillColor=none;points=[[0,0.5],[1,0.5]];portConstraint=eastwest;" vertex="1" parent="5_YuhG84WlwaUPd1VmNm-57">
          <mxGeometry y="120" width="730" height="40" as="geometry" />
        </mxCell>
        <mxCell id="5_YuhG84WlwaUPd1VmNm-190" value="60" style="shape=partialRectangle;html=1;whiteSpace=wrap;connectable=0;strokeColor=inherit;overflow=hidden;fillColor=none;top=0;left=0;bottom=0;right=0;pointerEvents=1;" vertex="1" parent="5_YuhG84WlwaUPd1VmNm-63">
          <mxGeometry width="50" height="40" as="geometry">
            <mxRectangle width="50" height="40" as="alternateBounds" />
          </mxGeometry>
        </mxCell>
        <mxCell id="5_YuhG84WlwaUPd1VmNm-180" value="U4" style="shape=partialRectangle;html=1;whiteSpace=wrap;connectable=0;strokeColor=inherit;overflow=hidden;fillColor=none;top=0;left=0;bottom=0;right=0;pointerEvents=1;" vertex="1" parent="5_YuhG84WlwaUPd1VmNm-63">
          <mxGeometry x="50" width="50" height="40" as="geometry">
            <mxRectangle width="50" height="40" as="alternateBounds" />
          </mxGeometry>
        </mxCell>
        <mxCell id="5_YuhG84WlwaUPd1VmNm-64" value="1" style="shape=partialRectangle;html=1;whiteSpace=wrap;connectable=0;strokeColor=inherit;overflow=hidden;fillColor=none;top=0;left=0;bottom=0;right=0;pointerEvents=1;" vertex="1" parent="5_YuhG84WlwaUPd1VmNm-63">
          <mxGeometry x="100" width="50" height="40" as="geometry">
            <mxRectangle width="50" height="40" as="alternateBounds" />
          </mxGeometry>
        </mxCell>
        <mxCell id="5_YuhG84WlwaUPd1VmNm-65" value="0" style="shape=partialRectangle;html=1;whiteSpace=wrap;connectable=0;strokeColor=inherit;overflow=hidden;fillColor=none;top=0;left=0;bottom=0;right=0;pointerEvents=1;" vertex="1" parent="5_YuhG84WlwaUPd1VmNm-63">
          <mxGeometry x="150" width="60" height="40" as="geometry">
            <mxRectangle width="60" height="40" as="alternateBounds" />
          </mxGeometry>
        </mxCell>
        <mxCell id="5_YuhG84WlwaUPd1VmNm-66" value="0" style="shape=partialRectangle;html=1;whiteSpace=wrap;connectable=0;strokeColor=inherit;overflow=hidden;fillColor=none;top=0;left=0;bottom=0;right=0;pointerEvents=1;" vertex="1" parent="5_YuhG84WlwaUPd1VmNm-63">
          <mxGeometry x="210" width="60" height="40" as="geometry">
            <mxRectangle width="60" height="40" as="alternateBounds" />
          </mxGeometry>
        </mxCell>
        <mxCell id="5_YuhG84WlwaUPd1VmNm-67" value="2/3Vdc" style="shape=partialRectangle;html=1;whiteSpace=wrap;connectable=0;strokeColor=inherit;overflow=hidden;fillColor=none;top=0;left=0;bottom=0;right=0;pointerEvents=1;" vertex="1" parent="5_YuhG84WlwaUPd1VmNm-63">
          <mxGeometry x="270" width="60" height="40" as="geometry">
            <mxRectangle width="60" height="40" as="alternateBounds" />
          </mxGeometry>
        </mxCell>
        <mxCell id="5_YuhG84WlwaUPd1VmNm-98" value="-1/3Vdc" style="shape=partialRectangle;html=1;whiteSpace=wrap;connectable=0;strokeColor=inherit;overflow=hidden;fillColor=none;top=0;left=0;bottom=0;right=0;pointerEvents=1;" vertex="1" parent="5_YuhG84WlwaUPd1VmNm-63">
          <mxGeometry x="330" width="60" height="40" as="geometry">
            <mxRectangle width="60" height="40" as="alternateBounds" />
          </mxGeometry>
        </mxCell>
        <mxCell id="5_YuhG84WlwaUPd1VmNm-112" value="-1/3 Vdc" style="shape=partialRectangle;html=1;whiteSpace=wrap;connectable=0;strokeColor=inherit;overflow=hidden;fillColor=none;top=0;left=0;bottom=0;right=0;pointerEvents=1;" vertex="1" parent="5_YuhG84WlwaUPd1VmNm-63">
          <mxGeometry x="390" width="60" height="40" as="geometry">
            <mxRectangle width="60" height="40" as="alternateBounds" />
          </mxGeometry>
        </mxCell>
        <mxCell id="5_YuhG84WlwaUPd1VmNm-105" value="Vdc" style="shape=partialRectangle;html=1;whiteSpace=wrap;connectable=0;strokeColor=inherit;overflow=hidden;fillColor=none;top=0;left=0;bottom=0;right=0;pointerEvents=1;" vertex="1" parent="5_YuhG84WlwaUPd1VmNm-63">
          <mxGeometry x="450" width="60" height="40" as="geometry">
            <mxRectangle width="60" height="40" as="alternateBounds" />
          </mxGeometry>
        </mxCell>
        <mxCell id="5_YuhG84WlwaUPd1VmNm-126" value="0" style="shape=partialRectangle;html=1;whiteSpace=wrap;connectable=0;strokeColor=inherit;overflow=hidden;fillColor=none;top=0;left=0;bottom=0;right=0;pointerEvents=1;" vertex="1" parent="5_YuhG84WlwaUPd1VmNm-63">
          <mxGeometry x="510" width="60" height="40" as="geometry">
            <mxRectangle width="60" height="40" as="alternateBounds" />
          </mxGeometry>
        </mxCell>
        <mxCell id="5_YuhG84WlwaUPd1VmNm-119" value="-Vdc" style="shape=partialRectangle;html=1;whiteSpace=wrap;connectable=0;strokeColor=inherit;overflow=hidden;fillColor=none;top=0;left=0;bottom=0;right=0;pointerEvents=1;" vertex="1" parent="5_YuhG84WlwaUPd1VmNm-63">
          <mxGeometry x="570" width="50" height="40" as="geometry">
            <mxRectangle width="50" height="40" as="alternateBounds" />
          </mxGeometry>
        </mxCell>
        <mxCell id="5_YuhG84WlwaUPd1VmNm-133" value="2/3Vdc" style="shape=partialRectangle;html=1;whiteSpace=wrap;connectable=0;strokeColor=inherit;overflow=hidden;fillColor=none;top=0;left=0;bottom=0;right=0;pointerEvents=1;" vertex="1" parent="5_YuhG84WlwaUPd1VmNm-63">
          <mxGeometry x="620" width="110" height="40" as="geometry">
            <mxRectangle width="110" height="40" as="alternateBounds" />
          </mxGeometry>
        </mxCell>
        <mxCell id="5_YuhG84WlwaUPd1VmNm-68" value="" style="shape=tableRow;horizontal=0;startSize=0;swimlaneHead=0;swimlaneBody=0;strokeColor=inherit;top=0;left=0;bottom=0;right=0;collapsible=0;dropTarget=0;fillColor=none;points=[[0,0.5],[1,0.5]];portConstraint=eastwest;" vertex="1" parent="5_YuhG84WlwaUPd1VmNm-57">
          <mxGeometry y="160" width="730" height="40" as="geometry" />
        </mxCell>
        <mxCell id="5_YuhG84WlwaUPd1VmNm-191" value="120" style="shape=partialRectangle;html=1;whiteSpace=wrap;connectable=0;strokeColor=inherit;overflow=hidden;fillColor=none;top=0;left=0;bottom=0;right=0;pointerEvents=1;" vertex="1" parent="5_YuhG84WlwaUPd1VmNm-68">
          <mxGeometry width="50" height="40" as="geometry">
            <mxRectangle width="50" height="40" as="alternateBounds" />
          </mxGeometry>
        </mxCell>
        <mxCell id="5_YuhG84WlwaUPd1VmNm-181" value="U2" style="shape=partialRectangle;html=1;whiteSpace=wrap;connectable=0;strokeColor=inherit;overflow=hidden;fillColor=none;top=0;left=0;bottom=0;right=0;pointerEvents=1;" vertex="1" parent="5_YuhG84WlwaUPd1VmNm-68">
          <mxGeometry x="50" width="50" height="40" as="geometry">
            <mxRectangle width="50" height="40" as="alternateBounds" />
          </mxGeometry>
        </mxCell>
        <mxCell id="5_YuhG84WlwaUPd1VmNm-69" value="0" style="shape=partialRectangle;html=1;whiteSpace=wrap;connectable=0;strokeColor=inherit;overflow=hidden;fillColor=none;top=0;left=0;bottom=0;right=0;pointerEvents=1;" vertex="1" parent="5_YuhG84WlwaUPd1VmNm-68">
          <mxGeometry x="100" width="50" height="40" as="geometry">
            <mxRectangle width="50" height="40" as="alternateBounds" />
          </mxGeometry>
        </mxCell>
        <mxCell id="5_YuhG84WlwaUPd1VmNm-70" value="1" style="shape=partialRectangle;html=1;whiteSpace=wrap;connectable=0;strokeColor=inherit;overflow=hidden;fillColor=none;top=0;left=0;bottom=0;right=0;pointerEvents=1;" vertex="1" parent="5_YuhG84WlwaUPd1VmNm-68">
          <mxGeometry x="150" width="60" height="40" as="geometry">
            <mxRectangle width="60" height="40" as="alternateBounds" />
          </mxGeometry>
        </mxCell>
        <mxCell id="5_YuhG84WlwaUPd1VmNm-71" value="0" style="shape=partialRectangle;html=1;whiteSpace=wrap;connectable=0;strokeColor=inherit;overflow=hidden;fillColor=none;top=0;left=0;bottom=0;right=0;pointerEvents=1;" vertex="1" parent="5_YuhG84WlwaUPd1VmNm-68">
          <mxGeometry x="210" width="60" height="40" as="geometry">
            <mxRectangle width="60" height="40" as="alternateBounds" />
          </mxGeometry>
        </mxCell>
        <mxCell id="5_YuhG84WlwaUPd1VmNm-72" value="-1/3Vdc" style="shape=partialRectangle;html=1;whiteSpace=wrap;connectable=0;strokeColor=inherit;overflow=hidden;fillColor=none;top=0;left=0;bottom=0;right=0;pointerEvents=1;" vertex="1" parent="5_YuhG84WlwaUPd1VmNm-68">
          <mxGeometry x="270" width="60" height="40" as="geometry">
            <mxRectangle width="60" height="40" as="alternateBounds" />
          </mxGeometry>
        </mxCell>
        <mxCell id="5_YuhG84WlwaUPd1VmNm-99" value="2/3Vdc" style="shape=partialRectangle;html=1;whiteSpace=wrap;connectable=0;strokeColor=inherit;overflow=hidden;fillColor=none;top=0;left=0;bottom=0;right=0;pointerEvents=1;" vertex="1" parent="5_YuhG84WlwaUPd1VmNm-68">
          <mxGeometry x="330" width="60" height="40" as="geometry">
            <mxRectangle width="60" height="40" as="alternateBounds" />
          </mxGeometry>
        </mxCell>
        <mxCell id="5_YuhG84WlwaUPd1VmNm-113" value="-1/3Vdc" style="shape=partialRectangle;html=1;whiteSpace=wrap;connectable=0;strokeColor=inherit;overflow=hidden;fillColor=none;top=0;left=0;bottom=0;right=0;pointerEvents=1;" vertex="1" parent="5_YuhG84WlwaUPd1VmNm-68">
          <mxGeometry x="390" width="60" height="40" as="geometry">
            <mxRectangle width="60" height="40" as="alternateBounds" />
          </mxGeometry>
        </mxCell>
        <mxCell id="5_YuhG84WlwaUPd1VmNm-106" value="-Vdc" style="shape=partialRectangle;html=1;whiteSpace=wrap;connectable=0;strokeColor=inherit;overflow=hidden;fillColor=none;top=0;left=0;bottom=0;right=0;pointerEvents=1;" vertex="1" parent="5_YuhG84WlwaUPd1VmNm-68">
          <mxGeometry x="450" width="60" height="40" as="geometry">
            <mxRectangle width="60" height="40" as="alternateBounds" />
          </mxGeometry>
        </mxCell>
        <mxCell id="5_YuhG84WlwaUPd1VmNm-127" value="Vdc" style="shape=partialRectangle;html=1;whiteSpace=wrap;connectable=0;strokeColor=inherit;overflow=hidden;fillColor=none;top=0;left=0;bottom=0;right=0;pointerEvents=1;" vertex="1" parent="5_YuhG84WlwaUPd1VmNm-68">
          <mxGeometry x="510" width="60" height="40" as="geometry">
            <mxRectangle width="60" height="40" as="alternateBounds" />
          </mxGeometry>
        </mxCell>
        <mxCell id="5_YuhG84WlwaUPd1VmNm-120" value="0" style="shape=partialRectangle;html=1;whiteSpace=wrap;connectable=0;strokeColor=inherit;overflow=hidden;fillColor=none;top=0;left=0;bottom=0;right=0;pointerEvents=1;" vertex="1" parent="5_YuhG84WlwaUPd1VmNm-68">
          <mxGeometry x="570" width="50" height="40" as="geometry">
            <mxRectangle width="50" height="40" as="alternateBounds" />
          </mxGeometry>
        </mxCell>
        <mxCell id="5_YuhG84WlwaUPd1VmNm-134" value="" style="shape=partialRectangle;html=1;whiteSpace=wrap;connectable=0;strokeColor=inherit;overflow=hidden;fillColor=none;top=0;left=0;bottom=0;right=0;pointerEvents=1;" vertex="1" parent="5_YuhG84WlwaUPd1VmNm-68">
          <mxGeometry x="620" width="110" height="40" as="geometry">
            <mxRectangle width="110" height="40" as="alternateBounds" />
          </mxGeometry>
        </mxCell>
        <mxCell id="5_YuhG84WlwaUPd1VmNm-73" value="" style="shape=tableRow;horizontal=0;startSize=0;swimlaneHead=0;swimlaneBody=0;strokeColor=inherit;top=0;left=0;bottom=0;right=0;collapsible=0;dropTarget=0;fillColor=none;points=[[0,0.5],[1,0.5]];portConstraint=eastwest;" vertex="1" parent="5_YuhG84WlwaUPd1VmNm-57">
          <mxGeometry y="200" width="730" height="40" as="geometry" />
        </mxCell>
        <mxCell id="5_YuhG84WlwaUPd1VmNm-192" value="180" style="shape=partialRectangle;html=1;whiteSpace=wrap;connectable=0;strokeColor=inherit;overflow=hidden;fillColor=none;top=0;left=0;bottom=0;right=0;pointerEvents=1;" vertex="1" parent="5_YuhG84WlwaUPd1VmNm-73">
          <mxGeometry width="50" height="40" as="geometry">
            <mxRectangle width="50" height="40" as="alternateBounds" />
          </mxGeometry>
        </mxCell>
        <mxCell id="5_YuhG84WlwaUPd1VmNm-182" value="U6" style="shape=partialRectangle;html=1;whiteSpace=wrap;connectable=0;strokeColor=inherit;overflow=hidden;fillColor=none;top=0;left=0;bottom=0;right=0;pointerEvents=1;" vertex="1" parent="5_YuhG84WlwaUPd1VmNm-73">
          <mxGeometry x="50" width="50" height="40" as="geometry">
            <mxRectangle width="50" height="40" as="alternateBounds" />
          </mxGeometry>
        </mxCell>
        <mxCell id="5_YuhG84WlwaUPd1VmNm-74" value="1" style="shape=partialRectangle;html=1;whiteSpace=wrap;connectable=0;strokeColor=inherit;overflow=hidden;fillColor=none;top=0;left=0;bottom=0;right=0;pointerEvents=1;" vertex="1" parent="5_YuhG84WlwaUPd1VmNm-73">
          <mxGeometry x="100" width="50" height="40" as="geometry">
            <mxRectangle width="50" height="40" as="alternateBounds" />
          </mxGeometry>
        </mxCell>
        <mxCell id="5_YuhG84WlwaUPd1VmNm-75" value="1" style="shape=partialRectangle;html=1;whiteSpace=wrap;connectable=0;strokeColor=inherit;overflow=hidden;fillColor=none;top=0;left=0;bottom=0;right=0;pointerEvents=1;" vertex="1" parent="5_YuhG84WlwaUPd1VmNm-73">
          <mxGeometry x="150" width="60" height="40" as="geometry">
            <mxRectangle width="60" height="40" as="alternateBounds" />
          </mxGeometry>
        </mxCell>
        <mxCell id="5_YuhG84WlwaUPd1VmNm-76" value="0" style="shape=partialRectangle;html=1;whiteSpace=wrap;connectable=0;strokeColor=inherit;overflow=hidden;fillColor=none;top=0;left=0;bottom=0;right=0;pointerEvents=1;" vertex="1" parent="5_YuhG84WlwaUPd1VmNm-73">
          <mxGeometry x="210" width="60" height="40" as="geometry">
            <mxRectangle width="60" height="40" as="alternateBounds" />
          </mxGeometry>
        </mxCell>
        <mxCell id="5_YuhG84WlwaUPd1VmNm-77" value="1/3Vdc" style="shape=partialRectangle;html=1;whiteSpace=wrap;connectable=0;strokeColor=inherit;overflow=hidden;fillColor=none;top=0;left=0;bottom=0;right=0;pointerEvents=1;" vertex="1" parent="5_YuhG84WlwaUPd1VmNm-73">
          <mxGeometry x="270" width="60" height="40" as="geometry">
            <mxRectangle width="60" height="40" as="alternateBounds" />
          </mxGeometry>
        </mxCell>
        <mxCell id="5_YuhG84WlwaUPd1VmNm-100" value="1/3Vdc" style="shape=partialRectangle;html=1;whiteSpace=wrap;connectable=0;strokeColor=inherit;overflow=hidden;fillColor=none;top=0;left=0;bottom=0;right=0;pointerEvents=1;" vertex="1" parent="5_YuhG84WlwaUPd1VmNm-73">
          <mxGeometry x="330" width="60" height="40" as="geometry">
            <mxRectangle width="60" height="40" as="alternateBounds" />
          </mxGeometry>
        </mxCell>
        <mxCell id="5_YuhG84WlwaUPd1VmNm-114" value="-2/3Vdc" style="shape=partialRectangle;html=1;whiteSpace=wrap;connectable=0;strokeColor=inherit;overflow=hidden;fillColor=none;top=0;left=0;bottom=0;right=0;pointerEvents=1;" vertex="1" parent="5_YuhG84WlwaUPd1VmNm-73">
          <mxGeometry x="390" width="60" height="40" as="geometry">
            <mxRectangle width="60" height="40" as="alternateBounds" />
          </mxGeometry>
        </mxCell>
        <mxCell id="5_YuhG84WlwaUPd1VmNm-107" value="0" style="shape=partialRectangle;html=1;whiteSpace=wrap;connectable=0;strokeColor=inherit;overflow=hidden;fillColor=none;top=0;left=0;bottom=0;right=0;pointerEvents=1;" vertex="1" parent="5_YuhG84WlwaUPd1VmNm-73">
          <mxGeometry x="450" width="60" height="40" as="geometry">
            <mxRectangle width="60" height="40" as="alternateBounds" />
          </mxGeometry>
        </mxCell>
        <mxCell id="5_YuhG84WlwaUPd1VmNm-128" value="Vdc" style="shape=partialRectangle;html=1;whiteSpace=wrap;connectable=0;strokeColor=inherit;overflow=hidden;fillColor=none;top=0;left=0;bottom=0;right=0;pointerEvents=1;" vertex="1" parent="5_YuhG84WlwaUPd1VmNm-73">
          <mxGeometry x="510" width="60" height="40" as="geometry">
            <mxRectangle width="60" height="40" as="alternateBounds" />
          </mxGeometry>
        </mxCell>
        <mxCell id="5_YuhG84WlwaUPd1VmNm-121" value="-Vdc" style="shape=partialRectangle;html=1;whiteSpace=wrap;connectable=0;strokeColor=inherit;overflow=hidden;fillColor=none;top=0;left=0;bottom=0;right=0;pointerEvents=1;" vertex="1" parent="5_YuhG84WlwaUPd1VmNm-73">
          <mxGeometry x="570" width="50" height="40" as="geometry">
            <mxRectangle width="50" height="40" as="alternateBounds" />
          </mxGeometry>
        </mxCell>
        <mxCell id="5_YuhG84WlwaUPd1VmNm-135" style="shape=partialRectangle;html=1;whiteSpace=wrap;connectable=0;strokeColor=inherit;overflow=hidden;fillColor=none;top=0;left=0;bottom=0;right=0;pointerEvents=1;" vertex="1" parent="5_YuhG84WlwaUPd1VmNm-73">
          <mxGeometry x="620" width="110" height="40" as="geometry">
            <mxRectangle width="110" height="40" as="alternateBounds" />
          </mxGeometry>
        </mxCell>
        <mxCell id="5_YuhG84WlwaUPd1VmNm-83" style="shape=tableRow;horizontal=0;startSize=0;swimlaneHead=0;swimlaneBody=0;strokeColor=inherit;top=0;left=0;bottom=0;right=0;collapsible=0;dropTarget=0;fillColor=none;points=[[0,0.5],[1,0.5]];portConstraint=eastwest;" vertex="1" parent="5_YuhG84WlwaUPd1VmNm-57">
          <mxGeometry y="240" width="730" height="40" as="geometry" />
        </mxCell>
        <mxCell id="5_YuhG84WlwaUPd1VmNm-193" value="240" style="shape=partialRectangle;html=1;whiteSpace=wrap;connectable=0;strokeColor=inherit;overflow=hidden;fillColor=none;top=0;left=0;bottom=0;right=0;pointerEvents=1;" vertex="1" parent="5_YuhG84WlwaUPd1VmNm-83">
          <mxGeometry width="50" height="40" as="geometry">
            <mxRectangle width="50" height="40" as="alternateBounds" />
          </mxGeometry>
        </mxCell>
        <mxCell id="5_YuhG84WlwaUPd1VmNm-183" value="U1" style="shape=partialRectangle;html=1;whiteSpace=wrap;connectable=0;strokeColor=inherit;overflow=hidden;fillColor=none;top=0;left=0;bottom=0;right=0;pointerEvents=1;" vertex="1" parent="5_YuhG84WlwaUPd1VmNm-83">
          <mxGeometry x="50" width="50" height="40" as="geometry">
            <mxRectangle width="50" height="40" as="alternateBounds" />
          </mxGeometry>
        </mxCell>
        <mxCell id="5_YuhG84WlwaUPd1VmNm-84" value="0" style="shape=partialRectangle;html=1;whiteSpace=wrap;connectable=0;strokeColor=inherit;overflow=hidden;fillColor=none;top=0;left=0;bottom=0;right=0;pointerEvents=1;" vertex="1" parent="5_YuhG84WlwaUPd1VmNm-83">
          <mxGeometry x="100" width="50" height="40" as="geometry">
            <mxRectangle width="50" height="40" as="alternateBounds" />
          </mxGeometry>
        </mxCell>
        <mxCell id="5_YuhG84WlwaUPd1VmNm-85" value="0" style="shape=partialRectangle;html=1;whiteSpace=wrap;connectable=0;strokeColor=inherit;overflow=hidden;fillColor=none;top=0;left=0;bottom=0;right=0;pointerEvents=1;" vertex="1" parent="5_YuhG84WlwaUPd1VmNm-83">
          <mxGeometry x="150" width="60" height="40" as="geometry">
            <mxRectangle width="60" height="40" as="alternateBounds" />
          </mxGeometry>
        </mxCell>
        <mxCell id="5_YuhG84WlwaUPd1VmNm-86" value="1" style="shape=partialRectangle;html=1;whiteSpace=wrap;connectable=0;strokeColor=inherit;overflow=hidden;fillColor=none;top=0;left=0;bottom=0;right=0;pointerEvents=1;" vertex="1" parent="5_YuhG84WlwaUPd1VmNm-83">
          <mxGeometry x="210" width="60" height="40" as="geometry">
            <mxRectangle width="60" height="40" as="alternateBounds" />
          </mxGeometry>
        </mxCell>
        <mxCell id="5_YuhG84WlwaUPd1VmNm-87" value="-1/3Vdc" style="shape=partialRectangle;html=1;whiteSpace=wrap;connectable=0;strokeColor=inherit;overflow=hidden;fillColor=none;top=0;left=0;bottom=0;right=0;pointerEvents=1;" vertex="1" parent="5_YuhG84WlwaUPd1VmNm-83">
          <mxGeometry x="270" width="60" height="40" as="geometry">
            <mxRectangle width="60" height="40" as="alternateBounds" />
          </mxGeometry>
        </mxCell>
        <mxCell id="5_YuhG84WlwaUPd1VmNm-101" value="-1/3Vdc" style="shape=partialRectangle;html=1;whiteSpace=wrap;connectable=0;strokeColor=inherit;overflow=hidden;fillColor=none;top=0;left=0;bottom=0;right=0;pointerEvents=1;" vertex="1" parent="5_YuhG84WlwaUPd1VmNm-83">
          <mxGeometry x="330" width="60" height="40" as="geometry">
            <mxRectangle width="60" height="40" as="alternateBounds" />
          </mxGeometry>
        </mxCell>
        <mxCell id="5_YuhG84WlwaUPd1VmNm-115" value="2/3Vdc" style="shape=partialRectangle;html=1;whiteSpace=wrap;connectable=0;strokeColor=inherit;overflow=hidden;fillColor=none;top=0;left=0;bottom=0;right=0;pointerEvents=1;" vertex="1" parent="5_YuhG84WlwaUPd1VmNm-83">
          <mxGeometry x="390" width="60" height="40" as="geometry">
            <mxRectangle width="60" height="40" as="alternateBounds" />
          </mxGeometry>
        </mxCell>
        <mxCell id="5_YuhG84WlwaUPd1VmNm-108" value="0" style="shape=partialRectangle;html=1;whiteSpace=wrap;connectable=0;strokeColor=inherit;overflow=hidden;fillColor=none;top=0;left=0;bottom=0;right=0;pointerEvents=1;" vertex="1" parent="5_YuhG84WlwaUPd1VmNm-83">
          <mxGeometry x="450" width="60" height="40" as="geometry">
            <mxRectangle width="60" height="40" as="alternateBounds" />
          </mxGeometry>
        </mxCell>
        <mxCell id="5_YuhG84WlwaUPd1VmNm-129" value="-Vdc" style="shape=partialRectangle;html=1;whiteSpace=wrap;connectable=0;strokeColor=inherit;overflow=hidden;fillColor=none;top=0;left=0;bottom=0;right=0;pointerEvents=1;" vertex="1" parent="5_YuhG84WlwaUPd1VmNm-83">
          <mxGeometry x="510" width="60" height="40" as="geometry">
            <mxRectangle width="60" height="40" as="alternateBounds" />
          </mxGeometry>
        </mxCell>
        <mxCell id="5_YuhG84WlwaUPd1VmNm-122" value="Vdc" style="shape=partialRectangle;html=1;whiteSpace=wrap;connectable=0;strokeColor=inherit;overflow=hidden;fillColor=none;top=0;left=0;bottom=0;right=0;pointerEvents=1;" vertex="1" parent="5_YuhG84WlwaUPd1VmNm-83">
          <mxGeometry x="570" width="50" height="40" as="geometry">
            <mxRectangle width="50" height="40" as="alternateBounds" />
          </mxGeometry>
        </mxCell>
        <mxCell id="5_YuhG84WlwaUPd1VmNm-136" style="shape=partialRectangle;html=1;whiteSpace=wrap;connectable=0;strokeColor=inherit;overflow=hidden;fillColor=none;top=0;left=0;bottom=0;right=0;pointerEvents=1;" vertex="1" parent="5_YuhG84WlwaUPd1VmNm-83">
          <mxGeometry x="620" width="110" height="40" as="geometry">
            <mxRectangle width="110" height="40" as="alternateBounds" />
          </mxGeometry>
        </mxCell>
        <mxCell id="5_YuhG84WlwaUPd1VmNm-88" style="shape=tableRow;horizontal=0;startSize=0;swimlaneHead=0;swimlaneBody=0;strokeColor=inherit;top=0;left=0;bottom=0;right=0;collapsible=0;dropTarget=0;fillColor=none;points=[[0,0.5],[1,0.5]];portConstraint=eastwest;" vertex="1" parent="5_YuhG84WlwaUPd1VmNm-57">
          <mxGeometry y="280" width="730" height="40" as="geometry" />
        </mxCell>
        <mxCell id="5_YuhG84WlwaUPd1VmNm-194" value="300" style="shape=partialRectangle;html=1;whiteSpace=wrap;connectable=0;strokeColor=inherit;overflow=hidden;fillColor=none;top=0;left=0;bottom=0;right=0;pointerEvents=1;" vertex="1" parent="5_YuhG84WlwaUPd1VmNm-88">
          <mxGeometry width="50" height="40" as="geometry">
            <mxRectangle width="50" height="40" as="alternateBounds" />
          </mxGeometry>
        </mxCell>
        <mxCell id="5_YuhG84WlwaUPd1VmNm-184" value="U5" style="shape=partialRectangle;html=1;whiteSpace=wrap;connectable=0;strokeColor=inherit;overflow=hidden;fillColor=none;top=0;left=0;bottom=0;right=0;pointerEvents=1;" vertex="1" parent="5_YuhG84WlwaUPd1VmNm-88">
          <mxGeometry x="50" width="50" height="40" as="geometry">
            <mxRectangle width="50" height="40" as="alternateBounds" />
          </mxGeometry>
        </mxCell>
        <mxCell id="5_YuhG84WlwaUPd1VmNm-89" value="1" style="shape=partialRectangle;html=1;whiteSpace=wrap;connectable=0;strokeColor=inherit;overflow=hidden;fillColor=none;top=0;left=0;bottom=0;right=0;pointerEvents=1;" vertex="1" parent="5_YuhG84WlwaUPd1VmNm-88">
          <mxGeometry x="100" width="50" height="40" as="geometry">
            <mxRectangle width="50" height="40" as="alternateBounds" />
          </mxGeometry>
        </mxCell>
        <mxCell id="5_YuhG84WlwaUPd1VmNm-90" value="0" style="shape=partialRectangle;html=1;whiteSpace=wrap;connectable=0;strokeColor=inherit;overflow=hidden;fillColor=none;top=0;left=0;bottom=0;right=0;pointerEvents=1;" vertex="1" parent="5_YuhG84WlwaUPd1VmNm-88">
          <mxGeometry x="150" width="60" height="40" as="geometry">
            <mxRectangle width="60" height="40" as="alternateBounds" />
          </mxGeometry>
        </mxCell>
        <mxCell id="5_YuhG84WlwaUPd1VmNm-91" value="1" style="shape=partialRectangle;html=1;whiteSpace=wrap;connectable=0;strokeColor=inherit;overflow=hidden;fillColor=none;top=0;left=0;bottom=0;right=0;pointerEvents=1;" vertex="1" parent="5_YuhG84WlwaUPd1VmNm-88">
          <mxGeometry x="210" width="60" height="40" as="geometry">
            <mxRectangle width="60" height="40" as="alternateBounds" />
          </mxGeometry>
        </mxCell>
        <mxCell id="5_YuhG84WlwaUPd1VmNm-92" value="1/3Vdc" style="shape=partialRectangle;html=1;whiteSpace=wrap;connectable=0;strokeColor=inherit;overflow=hidden;fillColor=none;top=0;left=0;bottom=0;right=0;pointerEvents=1;" vertex="1" parent="5_YuhG84WlwaUPd1VmNm-88">
          <mxGeometry x="270" width="60" height="40" as="geometry">
            <mxRectangle width="60" height="40" as="alternateBounds" />
          </mxGeometry>
        </mxCell>
        <mxCell id="5_YuhG84WlwaUPd1VmNm-102" value="-2/3Vdc" style="shape=partialRectangle;html=1;whiteSpace=wrap;connectable=0;strokeColor=inherit;overflow=hidden;fillColor=none;top=0;left=0;bottom=0;right=0;pointerEvents=1;" vertex="1" parent="5_YuhG84WlwaUPd1VmNm-88">
          <mxGeometry x="330" width="60" height="40" as="geometry">
            <mxRectangle width="60" height="40" as="alternateBounds" />
          </mxGeometry>
        </mxCell>
        <mxCell id="5_YuhG84WlwaUPd1VmNm-116" value="1/3Vdc" style="shape=partialRectangle;html=1;whiteSpace=wrap;connectable=0;strokeColor=inherit;overflow=hidden;fillColor=none;top=0;left=0;bottom=0;right=0;pointerEvents=1;" vertex="1" parent="5_YuhG84WlwaUPd1VmNm-88">
          <mxGeometry x="390" width="60" height="40" as="geometry">
            <mxRectangle width="60" height="40" as="alternateBounds" />
          </mxGeometry>
        </mxCell>
        <mxCell id="5_YuhG84WlwaUPd1VmNm-109" value="Vdc" style="shape=partialRectangle;html=1;whiteSpace=wrap;connectable=0;strokeColor=inherit;overflow=hidden;fillColor=none;top=0;left=0;bottom=0;right=0;pointerEvents=1;" vertex="1" parent="5_YuhG84WlwaUPd1VmNm-88">
          <mxGeometry x="450" width="60" height="40" as="geometry">
            <mxRectangle width="60" height="40" as="alternateBounds" />
          </mxGeometry>
        </mxCell>
        <mxCell id="5_YuhG84WlwaUPd1VmNm-130" value="-Vdc" style="shape=partialRectangle;html=1;whiteSpace=wrap;connectable=0;strokeColor=inherit;overflow=hidden;fillColor=none;top=0;left=0;bottom=0;right=0;pointerEvents=1;" vertex="1" parent="5_YuhG84WlwaUPd1VmNm-88">
          <mxGeometry x="510" width="60" height="40" as="geometry">
            <mxRectangle width="60" height="40" as="alternateBounds" />
          </mxGeometry>
        </mxCell>
        <mxCell id="5_YuhG84WlwaUPd1VmNm-123" value="0" style="shape=partialRectangle;html=1;whiteSpace=wrap;connectable=0;strokeColor=inherit;overflow=hidden;fillColor=none;top=0;left=0;bottom=0;right=0;pointerEvents=1;" vertex="1" parent="5_YuhG84WlwaUPd1VmNm-88">
          <mxGeometry x="570" width="50" height="40" as="geometry">
            <mxRectangle width="50" height="40" as="alternateBounds" />
          </mxGeometry>
        </mxCell>
        <mxCell id="5_YuhG84WlwaUPd1VmNm-137" style="shape=partialRectangle;html=1;whiteSpace=wrap;connectable=0;strokeColor=inherit;overflow=hidden;fillColor=none;top=0;left=0;bottom=0;right=0;pointerEvents=1;" vertex="1" parent="5_YuhG84WlwaUPd1VmNm-88">
          <mxGeometry x="620" width="110" height="40" as="geometry">
            <mxRectangle width="110" height="40" as="alternateBounds" />
          </mxGeometry>
        </mxCell>
        <mxCell id="5_YuhG84WlwaUPd1VmNm-155" style="shape=tableRow;horizontal=0;startSize=0;swimlaneHead=0;swimlaneBody=0;strokeColor=inherit;top=0;left=0;bottom=0;right=0;collapsible=0;dropTarget=0;fillColor=none;points=[[0,0.5],[1,0.5]];portConstraint=eastwest;" vertex="1" parent="5_YuhG84WlwaUPd1VmNm-57">
          <mxGeometry y="320" width="730" height="40" as="geometry" />
        </mxCell>
        <mxCell id="5_YuhG84WlwaUPd1VmNm-195" value="360" style="shape=partialRectangle;html=1;whiteSpace=wrap;connectable=0;strokeColor=inherit;overflow=hidden;fillColor=none;top=0;left=0;bottom=0;right=0;pointerEvents=1;" vertex="1" parent="5_YuhG84WlwaUPd1VmNm-155">
          <mxGeometry width="50" height="40" as="geometry">
            <mxRectangle width="50" height="40" as="alternateBounds" />
          </mxGeometry>
        </mxCell>
        <mxCell id="5_YuhG84WlwaUPd1VmNm-185" value="U3" style="shape=partialRectangle;html=1;whiteSpace=wrap;connectable=0;strokeColor=inherit;overflow=hidden;fillColor=none;top=0;left=0;bottom=0;right=0;pointerEvents=1;" vertex="1" parent="5_YuhG84WlwaUPd1VmNm-155">
          <mxGeometry x="50" width="50" height="40" as="geometry">
            <mxRectangle width="50" height="40" as="alternateBounds" />
          </mxGeometry>
        </mxCell>
        <mxCell id="5_YuhG84WlwaUPd1VmNm-156" value="0" style="shape=partialRectangle;html=1;whiteSpace=wrap;connectable=0;strokeColor=inherit;overflow=hidden;fillColor=none;top=0;left=0;bottom=0;right=0;pointerEvents=1;" vertex="1" parent="5_YuhG84WlwaUPd1VmNm-155">
          <mxGeometry x="100" width="50" height="40" as="geometry">
            <mxRectangle width="50" height="40" as="alternateBounds" />
          </mxGeometry>
        </mxCell>
        <mxCell id="5_YuhG84WlwaUPd1VmNm-157" value="1" style="shape=partialRectangle;html=1;whiteSpace=wrap;connectable=0;strokeColor=inherit;overflow=hidden;fillColor=none;top=0;left=0;bottom=0;right=0;pointerEvents=1;" vertex="1" parent="5_YuhG84WlwaUPd1VmNm-155">
          <mxGeometry x="150" width="60" height="40" as="geometry">
            <mxRectangle width="60" height="40" as="alternateBounds" />
          </mxGeometry>
        </mxCell>
        <mxCell id="5_YuhG84WlwaUPd1VmNm-158" value="1" style="shape=partialRectangle;html=1;whiteSpace=wrap;connectable=0;strokeColor=inherit;overflow=hidden;fillColor=none;top=0;left=0;bottom=0;right=0;pointerEvents=1;" vertex="1" parent="5_YuhG84WlwaUPd1VmNm-155">
          <mxGeometry x="210" width="60" height="40" as="geometry">
            <mxRectangle width="60" height="40" as="alternateBounds" />
          </mxGeometry>
        </mxCell>
        <mxCell id="5_YuhG84WlwaUPd1VmNm-159" value="-2/3Vdc" style="shape=partialRectangle;html=1;whiteSpace=wrap;connectable=0;strokeColor=inherit;overflow=hidden;fillColor=none;top=0;left=0;bottom=0;right=0;pointerEvents=1;" vertex="1" parent="5_YuhG84WlwaUPd1VmNm-155">
          <mxGeometry x="270" width="60" height="40" as="geometry">
            <mxRectangle width="60" height="40" as="alternateBounds" />
          </mxGeometry>
        </mxCell>
        <mxCell id="5_YuhG84WlwaUPd1VmNm-160" value="1/3Vdc" style="shape=partialRectangle;html=1;whiteSpace=wrap;connectable=0;strokeColor=inherit;overflow=hidden;fillColor=none;top=0;left=0;bottom=0;right=0;pointerEvents=1;" vertex="1" parent="5_YuhG84WlwaUPd1VmNm-155">
          <mxGeometry x="330" width="60" height="40" as="geometry">
            <mxRectangle width="60" height="40" as="alternateBounds" />
          </mxGeometry>
        </mxCell>
        <mxCell id="5_YuhG84WlwaUPd1VmNm-161" value="1/3Vdc" style="shape=partialRectangle;html=1;whiteSpace=wrap;connectable=0;strokeColor=inherit;overflow=hidden;fillColor=none;top=0;left=0;bottom=0;right=0;pointerEvents=1;" vertex="1" parent="5_YuhG84WlwaUPd1VmNm-155">
          <mxGeometry x="390" width="60" height="40" as="geometry">
            <mxRectangle width="60" height="40" as="alternateBounds" />
          </mxGeometry>
        </mxCell>
        <mxCell id="5_YuhG84WlwaUPd1VmNm-162" value="-Vdc" style="shape=partialRectangle;html=1;whiteSpace=wrap;connectable=0;strokeColor=inherit;overflow=hidden;fillColor=none;top=0;left=0;bottom=0;right=0;pointerEvents=1;" vertex="1" parent="5_YuhG84WlwaUPd1VmNm-155">
          <mxGeometry x="450" width="60" height="40" as="geometry">
            <mxRectangle width="60" height="40" as="alternateBounds" />
          </mxGeometry>
        </mxCell>
        <mxCell id="5_YuhG84WlwaUPd1VmNm-163" value="0" style="shape=partialRectangle;html=1;whiteSpace=wrap;connectable=0;strokeColor=inherit;overflow=hidden;fillColor=none;top=0;left=0;bottom=0;right=0;pointerEvents=1;" vertex="1" parent="5_YuhG84WlwaUPd1VmNm-155">
          <mxGeometry x="510" width="60" height="40" as="geometry">
            <mxRectangle width="60" height="40" as="alternateBounds" />
          </mxGeometry>
        </mxCell>
        <mxCell id="5_YuhG84WlwaUPd1VmNm-164" value="Vdc" style="shape=partialRectangle;html=1;whiteSpace=wrap;connectable=0;strokeColor=inherit;overflow=hidden;fillColor=none;top=0;left=0;bottom=0;right=0;pointerEvents=1;" vertex="1" parent="5_YuhG84WlwaUPd1VmNm-155">
          <mxGeometry x="570" width="50" height="40" as="geometry">
            <mxRectangle width="50" height="40" as="alternateBounds" />
          </mxGeometry>
        </mxCell>
        <mxCell id="5_YuhG84WlwaUPd1VmNm-165" style="shape=partialRectangle;html=1;whiteSpace=wrap;connectable=0;strokeColor=inherit;overflow=hidden;fillColor=none;top=0;left=0;bottom=0;right=0;pointerEvents=1;" vertex="1" parent="5_YuhG84WlwaUPd1VmNm-155">
          <mxGeometry x="620" width="110" height="40" as="geometry">
            <mxRectangle width="110" height="40" as="alternateBounds" />
          </mxGeometry>
        </mxCell>
        <mxCell id="5_YuhG84WlwaUPd1VmNm-166" style="shape=tableRow;horizontal=0;startSize=0;swimlaneHead=0;swimlaneBody=0;strokeColor=inherit;top=0;left=0;bottom=0;right=0;collapsible=0;dropTarget=0;fillColor=none;points=[[0,0.5],[1,0.5]];portConstraint=eastwest;" vertex="1" parent="5_YuhG84WlwaUPd1VmNm-57">
          <mxGeometry y="360" width="730" height="40" as="geometry" />
        </mxCell>
        <mxCell id="5_YuhG84WlwaUPd1VmNm-196" value="0" style="shape=partialRectangle;html=1;whiteSpace=wrap;connectable=0;strokeColor=inherit;overflow=hidden;fillColor=none;top=0;left=0;bottom=0;right=0;pointerEvents=1;" vertex="1" parent="5_YuhG84WlwaUPd1VmNm-166">
          <mxGeometry width="50" height="40" as="geometry">
            <mxRectangle width="50" height="40" as="alternateBounds" />
          </mxGeometry>
        </mxCell>
        <mxCell id="5_YuhG84WlwaUPd1VmNm-186" value="U7" style="shape=partialRectangle;html=1;whiteSpace=wrap;connectable=0;strokeColor=inherit;overflow=hidden;fillColor=none;top=0;left=0;bottom=0;right=0;pointerEvents=1;" vertex="1" parent="5_YuhG84WlwaUPd1VmNm-166">
          <mxGeometry x="50" width="50" height="40" as="geometry">
            <mxRectangle width="50" height="40" as="alternateBounds" />
          </mxGeometry>
        </mxCell>
        <mxCell id="5_YuhG84WlwaUPd1VmNm-167" value="1" style="shape=partialRectangle;html=1;whiteSpace=wrap;connectable=0;strokeColor=inherit;overflow=hidden;fillColor=none;top=0;left=0;bottom=0;right=0;pointerEvents=1;" vertex="1" parent="5_YuhG84WlwaUPd1VmNm-166">
          <mxGeometry x="100" width="50" height="40" as="geometry">
            <mxRectangle width="50" height="40" as="alternateBounds" />
          </mxGeometry>
        </mxCell>
        <mxCell id="5_YuhG84WlwaUPd1VmNm-168" value="1" style="shape=partialRectangle;html=1;whiteSpace=wrap;connectable=0;strokeColor=inherit;overflow=hidden;fillColor=none;top=0;left=0;bottom=0;right=0;pointerEvents=1;" vertex="1" parent="5_YuhG84WlwaUPd1VmNm-166">
          <mxGeometry x="150" width="60" height="40" as="geometry">
            <mxRectangle width="60" height="40" as="alternateBounds" />
          </mxGeometry>
        </mxCell>
        <mxCell id="5_YuhG84WlwaUPd1VmNm-169" value="1" style="shape=partialRectangle;html=1;whiteSpace=wrap;connectable=0;strokeColor=inherit;overflow=hidden;fillColor=none;top=0;left=0;bottom=0;right=0;pointerEvents=1;" vertex="1" parent="5_YuhG84WlwaUPd1VmNm-166">
          <mxGeometry x="210" width="60" height="40" as="geometry">
            <mxRectangle width="60" height="40" as="alternateBounds" />
          </mxGeometry>
        </mxCell>
        <mxCell id="5_YuhG84WlwaUPd1VmNm-170" value="0" style="shape=partialRectangle;html=1;whiteSpace=wrap;connectable=0;strokeColor=inherit;overflow=hidden;fillColor=none;top=0;left=0;bottom=0;right=0;pointerEvents=1;" vertex="1" parent="5_YuhG84WlwaUPd1VmNm-166">
          <mxGeometry x="270" width="60" height="40" as="geometry">
            <mxRectangle width="60" height="40" as="alternateBounds" />
          </mxGeometry>
        </mxCell>
        <mxCell id="5_YuhG84WlwaUPd1VmNm-171" value="0" style="shape=partialRectangle;html=1;whiteSpace=wrap;connectable=0;strokeColor=inherit;overflow=hidden;fillColor=none;top=0;left=0;bottom=0;right=0;pointerEvents=1;" vertex="1" parent="5_YuhG84WlwaUPd1VmNm-166">
          <mxGeometry x="330" width="60" height="40" as="geometry">
            <mxRectangle width="60" height="40" as="alternateBounds" />
          </mxGeometry>
        </mxCell>
        <mxCell id="5_YuhG84WlwaUPd1VmNm-172" value="0" style="shape=partialRectangle;html=1;whiteSpace=wrap;connectable=0;strokeColor=inherit;overflow=hidden;fillColor=none;top=0;left=0;bottom=0;right=0;pointerEvents=1;" vertex="1" parent="5_YuhG84WlwaUPd1VmNm-166">
          <mxGeometry x="390" width="60" height="40" as="geometry">
            <mxRectangle width="60" height="40" as="alternateBounds" />
          </mxGeometry>
        </mxCell>
        <mxCell id="5_YuhG84WlwaUPd1VmNm-173" value="0" style="shape=partialRectangle;html=1;whiteSpace=wrap;connectable=0;strokeColor=inherit;overflow=hidden;fillColor=none;top=0;left=0;bottom=0;right=0;pointerEvents=1;" vertex="1" parent="5_YuhG84WlwaUPd1VmNm-166">
          <mxGeometry x="450" width="60" height="40" as="geometry">
            <mxRectangle width="60" height="40" as="alternateBounds" />
          </mxGeometry>
        </mxCell>
        <mxCell id="5_YuhG84WlwaUPd1VmNm-174" value="0" style="shape=partialRectangle;html=1;whiteSpace=wrap;connectable=0;strokeColor=inherit;overflow=hidden;fillColor=none;top=0;left=0;bottom=0;right=0;pointerEvents=1;" vertex="1" parent="5_YuhG84WlwaUPd1VmNm-166">
          <mxGeometry x="510" width="60" height="40" as="geometry">
            <mxRectangle width="60" height="40" as="alternateBounds" />
          </mxGeometry>
        </mxCell>
        <mxCell id="5_YuhG84WlwaUPd1VmNm-175" value="0" style="shape=partialRectangle;html=1;whiteSpace=wrap;connectable=0;strokeColor=inherit;overflow=hidden;fillColor=none;top=0;left=0;bottom=0;right=0;pointerEvents=1;" vertex="1" parent="5_YuhG84WlwaUPd1VmNm-166">
          <mxGeometry x="570" width="50" height="40" as="geometry">
            <mxRectangle width="50" height="40" as="alternateBounds" />
          </mxGeometry>
        </mxCell>
        <mxCell id="5_YuhG84WlwaUPd1VmNm-176" style="shape=partialRectangle;html=1;whiteSpace=wrap;connectable=0;strokeColor=inherit;overflow=hidden;fillColor=none;top=0;left=0;bottom=0;right=0;pointerEvents=1;" vertex="1" parent="5_YuhG84WlwaUPd1VmNm-166">
          <mxGeometry x="620" width="110" height="40" as="geometry">
            <mxRectangle width="110" height="40" as="alternateBounds" />
          </mxGeometry>
        </mxCell>
        <mxCell id="5_YuhG84WlwaUPd1VmNm-93" value="Sa" style="text;html=1;align=center;verticalAlign=middle;resizable=0;points=[];autosize=1;strokeColor=none;fillColor=none;" vertex="1" parent="1">
          <mxGeometry x="130" y="58" width="40" height="30" as="geometry" />
        </mxCell>
        <mxCell id="5_YuhG84WlwaUPd1VmNm-94" value="Sb" style="text;html=1;align=center;verticalAlign=middle;resizable=0;points=[];autosize=1;strokeColor=none;fillColor=none;" vertex="1" parent="1">
          <mxGeometry x="190" y="58" width="40" height="30" as="geometry" />
        </mxCell>
        <mxCell id="5_YuhG84WlwaUPd1VmNm-95" value="Sc" style="text;html=1;align=center;verticalAlign=middle;resizable=0;points=[];autosize=1;strokeColor=none;fillColor=none;" vertex="1" parent="1">
          <mxGeometry x="280" y="58" width="40" height="30" as="geometry" />
        </mxCell>
        <mxCell id="5_YuhG84WlwaUPd1VmNm-150" value="&lt;font color=&quot;#ff0000&quot;&gt;&lt;b&gt;1&lt;/b&gt;&lt;/font&gt;" style="text;html=1;align=center;verticalAlign=middle;resizable=0;points=[];autosize=1;strokeColor=none;fillColor=none;" vertex="1" parent="1">
          <mxGeometry x="120" y="16" width="30" height="30" as="geometry" />
        </mxCell>
        <mxCell id="5_YuhG84WlwaUPd1VmNm-151" value="&lt;font color=&quot;#ff0000&quot;&gt;&lt;b&gt;0&lt;/b&gt;&lt;/font&gt;" style="text;html=1;align=center;verticalAlign=middle;resizable=0;points=[];autosize=1;strokeColor=none;fillColor=none;" vertex="1" parent="1">
          <mxGeometry x="210" y="18" width="30" height="30" as="geometry" />
        </mxCell>
        <mxCell id="5_YuhG84WlwaUPd1VmNm-152" value="&lt;font color=&quot;#ff0000&quot;&gt;&lt;b&gt;0&lt;/b&gt;&lt;/font&gt;" style="text;html=1;align=center;verticalAlign=middle;resizable=0;points=[];autosize=1;strokeColor=none;fillColor=none;" vertex="1" parent="1">
          <mxGeometry x="305" y="18" width="30" height="30" as="geometry" />
        </mxCell>
        <mxCell id="5_YuhG84WlwaUPd1VmNm-153" value="相电压 UAN= UA-UN = 2/3Vdc&lt;div&gt;UBN = VB-VN = -1/3 Vdc&lt;/div&gt;&lt;div&gt;UCN = VC-VN = -1/3 Vdc&lt;/div&gt;" style="text;html=1;align=left;verticalAlign=middle;resizable=0;points=[];autosize=1;strokeColor=none;fillColor=none;" vertex="1" parent="1">
          <mxGeometry x="300" y="265" width="190" height="60" as="geometry" />
        </mxCell>
        <mxCell id="5_YuhG84WlwaUPd1VmNm-154" value="相电压的开关函数：&lt;div&gt;UAN= Vdc * (2Sa-Sb-Sc) / 3&lt;/div&gt;&lt;div&gt;UBN = Vdc * (2Sb- Sa - Sc) / 3&lt;/div&gt;&lt;div&gt;UCN = Vdc *(2Sc - Sb - Sa) / 3&lt;/div&gt;" style="text;html=1;align=left;verticalAlign=middle;resizable=0;points=[];autosize=1;strokeColor=none;fillColor=none;" vertex="1" parent="1">
          <mxGeometry x="80" y="255" width="190" height="70" as="geometry" />
        </mxCell>
        <mxCell id="n0IKwlHgF30Edj34W5Sd-2" value="" style="shape=image;verticalLabelPosition=bottom;labelBackgroundColor=default;verticalAlign=top;aspect=fixed;imageAspect=0;image=data:image/png,/9j/4AAQSkZJRgABAQAAAQABAAD/2wBDAAEBAQEBAQEBAQEBAQEBAQEBAQEBAQEBAQEBAQEBAQEBAQEBAQEBAQEBAQEBAQEBAQEBAQEBAQEBAQEBAQEBAQH/2wBDAQEBAQEBAQEBAQEBAQEBAQEBAQEBAQEBAQEBAQEBAQEBAQEBAQEBAQEBAQEBAQEBAQEBAQEBAQEBAQEBAQEBAQH/wAARCAB3AksDASIAAhEBAxEB/8QAHQABAAIDAQEBAQAAAAAAAAAAAAgJBgcKBQMEAf/EAEUQAAEEAwEAAQMCAgYDDAsBAAUDBAYHAAECCAkRExQSFQoWGSEiWZbWFyM5GCQxQVhhcXant9fYGkJIV3d5h5WXoaLG/8QAFAEBAAAAAAAAAAAAAAAAAAAAAP/EABQRAQAAAAAAAAAAAAAAAAAAAAD/2gAMAwEAAhEDEQA/AO/jGMYDGMYDGMYDGMYDGMYDGMYDGMYDGMYDGMYDGMYDGMYDGMYDGMYDGMYDGMYDGMYDGMYDGMYDGMYDGMYDGMYDGMYDGMYDGMYDGMYDGMYDGMYDGMYDGMYDGMYDGMYDGMYDGMYDGMYDGMYDGMYDGMYDGMYDGMYDGMYDGMYDGMYDGMYDGMYDGMYDGMYDGQ6vP5CPEHmt0bGXd6npOCSOOa1s3CXU6DmLEH76SSccJq1xHFzE77WVQWSWRQRjqiyySnHaSffPWt5sjy76PgHrmh6/9FVa1kjOAWW0NP4yjLhzITIemQSTGosq5fjh5Qy2acvHgJy8ZJ/uCrj9vXa9PEWbzpdk3DfuMYwGMYwGMYwGMYwGMYwGMYwGMYwGMYwGMYwGMYwGMYwGMYwGMYwGMYwGMYwGMYwGMYwGMYwGMYwGMYwGMYwGMYwGMgh6D+QmoaHnpWowtfegfS1xxyPNpRMao8pVEXuiYQEMTZ9kI+pYCg92KjEIISlin29jAOSyMacNsemZBmN7YFRDl/4nj35PPKXteWS+sqyOTGGXVAuXi8vou5oaRre2ArEeqyakSCkeIKO2b5uMIvkhhhEUWfEAjz7ejLJg3fC3D4LCsYxgMYxgMYxgMYxgMYxgMYxgMYxgMYxgMYxgMYxgMYxgMYxgMYxgU6/MHQtGCfAvuW5BVMVONt4xTxZwWtUfXUQZ2QUXU2FAqLEZy2Dpyd6r2C44C9qOSivfQnnkd11tnzpHWS/Bh/sovHP/AFMmn/e1YGZl8yn+y99qf/Bol/8AswH1mG/Bh/sovHP/AFMmn/e1YGBbLjGMBjGMBjGMBjGMBjGMBjGMBjGMBjGMBjGMBjGMBjGaas/0HTlMyiooXZs5HxSU3xN9VzUoV0yMPXczmW2m3uw7P9qHP0mOuG/29qkjCg4Sis4aNVX/AA6etEVg3LjIxex4Dflo+dZ7AfM05AVzb0lXh7ETK5GdmEUYM4xzOI24sdi2l1ftXk3iRk3XKMqCAZLE0UJEHMEGTsKYjJPhrKAtb8JsXXkz5Eb4rUDZVkufEFbeO4jaV8dW1PbbuhhTno6Q2IoOgIKHTqzpBP545lVuV66TeNKgjREkpKS+2L4AJeykiiMchd7jKynXyexBvLOYSj5N9rP5KvMHsCZCWtVQBMo9lTGCN7RWDchn9uMjjEjzWz0dOlBxcWNItIyUFkH7Npp+24UsejxZU8ABnFg5iOrGQ4wsrH5Ci0bHwapFkg8UDnG7B6SYoGBnS22RNFkRftEnqC/DZ66R54XUD18YxgMYxgMYxgMYxgMYxgMYxgMYxgMYxgMZpqIehKZn1vWxQsPnwk9btGtIa+taFM0SWn8NbWAMWMxLp88XYoiXahUYj077biiD9wN4UbclkmKjxpwtuXAo8+NjxZ7z8v8Asn3TOL5tiFzLzfd9iTiyYGOEkyBGQSuezWVgyAecLsHzTTuHIxyuBCcENxYkULNmRJEcxiD0hHRGzxyrv5SR6MT/AIg/43pHRDhNrc8rVo3dnshbztjw5Ar2lJ4kUdSJ6yXWdIbO09zIgMiZ/icqKQwYx7/FIJkftLdLvsT1xXvjSoF7Nmg85LpEcOCYHUdRwtoqWse7LalK22MMrCvQDRF2QLyKQkN8875YsXyrAek8IbaOtt+GjitTyZ4+a+ebil/yefI5PI2L9g+izw+Ix+JdG0y9d+axs/6ax+CUNCDiWnfEvsXoMgMgL6QiFthXxBV3EIR/MSZFzMZwFnfqj2L5w8VV6jZ3pWzhNbxZ+Q6DA/yWZY0dkxvlou+/aI3Go8wKnjLzTdDtRx0zH9sx6fSa5N0ybd6Wys7/ANIz+KL/AN+Mz/8AwlbX+U8npaHl/wA1MrQsT2h6DZ8WS9hVbOeQurbTDyuu6BruKR10QnS9XRF8K5Fx4hMeWr07O5S/0XlBf7TYO3LsI6zQD65yrJdRhD4JfTHrw9XEBi1he4bylUlij91DI+k+q2t7YuaN0xGQYt4gxVeCQgCjIRyoJZg3OkuWzxFTnWl3L1TYXRUB83vx0+mrhg1E1FbsmN2RYxF0JiYkjVNlAmb8g0FEDKjdYuVjTYcx/WzGuvtqvHCKPSuk0+lOP163q2rNYQyl6hr9wzJQms4BGi7UfoalIAUPjgs6sz6SSTW5XMjhrZ+4/M5ST7d9dr706U19xXXfX9ebPwGMYwGMYwGMYwGVBehPm18deWpnIYTd8Z9MQl0BmMphDeQlfPszZQyVl4gSWGFnMHlZDTIRLhHXSXD1kTDLuUHQ10ze8/pScp73b7nK9/FdQX9z8j+brI5T/X3D/RDmH99a1rfSTawK4lRZTvf9X15S24rton119dc/dUR56/tdcYF/3ln1nBfXEXPTGvoJd0MBAiA8dy5uepZTVKh/skO5KJO4shKG7dSQDUWarVRyRH6UaJdPGvGle+lfprQftf5TfMHgCUxyL+iGVwjOJVH2B8PK4rVZ+TwRfoiRkg5GPdzFv03C8S1LUWJEnUa056KNwyjAoohpo9SUyZdFTT/SPSNOWH+Tt5/PtV17NPy99fr26/miJCDn5O+v/W2v+d93fX/Hvr6/8eViOhyXyNe5NbfIoHfFnx7TfekGrlD82MXn7eZMlUVnH0VT4alI75mFFFWe9a26aq2OZcpb/KasVOUwnR5S9c197CiBqdVrDblisbDkWI1F5b9XSKsFJD2/H8E03sWbSNNJc+JSarN9rFmPHY/SzhNBJwqrytylKfGMBjGMBjGMBjGMBjGMBjGMCmH5GhnyE+mKt9L+R6l8XV8vWNixvUMi/oOU+sowDeF2D1sKIujSdRIVqRKDFWBdNwO0PKzBDbxqz/M4cIbeppNsZ+NWNfIv5Dpfzf5As7xZXRWt4GsRjcnvyKes4s4fx8AbkpyTOJA4qZ9XLd6aVYPDarfY0PMul3DNPhRPWnCe03F4mMBjGVhfMf6VOeVfjr9D2NEHzodPjwAdVcAfMe+UyDCT2kWaQ793HK73+pIlHghI1IxyifKinD0Qhvjj6/2uQ2V5/wDWUm9T+gLfH02OiyvlKgjBCq5HbRJiUJl7lvNo2YvD4eniI+QMQLKAVhy75Ey6VFhEh7lMnV2Li6DQUyUkLmeeRY8S+ao55B8qUf54jbBsy4rmBhh8iWbabb2YnL9DRaeSByu0QbpOnJyXPjBLtx9v+1w4TT53tNNPWtc/JzcFh0H4C9WW5VCrhpYUNqU05jJRprf5kfdFHDIE5lDLrThttJ7FR5R5I2a+lOtt3ItJfSDr7f4qwYLZPydVKDuGW+eaHqq9PYd2V9+pOyYl5ziQMvH6uecPumHQux7Hm8nhMDjpj76TpDQZubLFknjZZm8YtFUl/sauL/M35sjfKULm9e3vU/pQpYVZ1nFvKFxQJKEXRMDVsmUwUQkUZQZlpJFTtdrEOSKRCbBJETYjlRfTJy24Klo6PMR8/h9r78qEPANVVvCLKgrS8G5idHr1hpmSsGlnF7PkMxMuXcuOMS6rQzJ+TscRjehUiZ8FWfIVmMAqktkQj1m1mJ628Ykr/wDdHxwegG0aFuIt5fkV7SWxZIoqEQJp/usNj/dUCNN3LlA0WSRsMf8AvDLbFuRbAdoFV1U2KhflyoFm+MYwGMYwGMgj7ssmW1uh5A3EJIWjbiee7vOFbHuxL1Vpo3EpSRkWpLGyiafWk3wkwNZKou2TnhRLfXKLnjnh02bLpTuwGMYwMIsmyoDT0DlVn2jLQcFr6ECHJ6VSyRvkx4cKLa65124dOFN/XpRVXtJqyZocLPSL5dsPYN3L503bq1mD/lnDSSL82vAvDHv+wvPirVy/YXdFqSjGxR4O36c98yyNV+ZscRa5mErsmir9OQpwlBXpv+jrgYpwon31WF88focTEfcXxo0rfj5cd4sVngC47sYK8PnEYmDgJYo8P3zOBLH81SSRmBi2iBZ+E2IddLD5KV0gk9drNk2nTPXVsVfbwJvKKpsaD2THHaKS7c5BJUDlYtRJdPhVLf5oN8+Q46647462n33ypz+rWuueev6sCLPmn5DfNvsOz5PXvmyWp2oKg9XQyyJpPgabpGNRx5YRF83iUDd6fs2rrqYOBgcyXND9ccbj3LLgWQ1ov0+ZjZzZVt8b3iUh5NnnyATs5Fh8TeelfZVhWFCh4l2BcDuqVb99ka57btAK66QXnozLZ8qkCd8sXYpkszaqDWuuNduLScBjGQcmnyXeAq9nWq2mHrmjQ8w4dIsiLDc3Gvx8dduOueEUJfIxnb2NQtRRTtNHjUsLhtbWVRR+v3VkuOwmNKZPHoRGJHM5cYYR6KRECXk8nPlF+WowHHgA9wVNGCLnv+w3YDBrRy9dr9/2Um6CinX9XO8q0Z+1kpx7C8dVJank+Pgg3pWK3XYnmKczE8Ikt3wLdTxsdK3UtnNepwh8IqEVaUScIuIf2EtcxM2a45MNPwEXPuFI+HtVbOQ0lDN3jNwMPx4+MSctXTZVqVDGwxVryqg4brpdLsSQwkxX5USVT6WavGq3PfHSiKmt9UkVA5cei/nX9Pz5RFV1C/CHluu/PkcX6S52P1Zl4vUbNkBli41re/3FmC/mWGk0u+uFOeWXG9J6Q0gs4C2q+dXmpVcpb+b0K5VuF2g0ZxVxa0iORiGDNOnzdEsXdk49BLJf7JjA/b52AaLRAqLdHEx6ZlFQX+WitB/xrQXsysp4J7vJj5qhdYAoxZJgs1oS07qnk7u++bHNwFZ7bF6ErCrSuBclKtAcdlSfD5Tgk4RISEczDMQcfj4ocz2rdfxneGvRdjnbcuqgAU+sWSpCEDUmJyiwGbh2gCDsQIlHlkHlo4W0SZihrNtymyYtuFe0+3S/Krxw5cK1t+hPBPxz1fdVJ+cqp8DVfaVzXPH7KnjEDM71u2p42OgFUtA6slfNZaNC2m2Jy8g+PjB8aiz1gAFO98v3Z6Xxpsix6JhL+sfJ3pyPTjyHa03k9Xk5rFrl9Z2n6rFBjMhVDE+vQ8fkI6Co1oXeQ0e7N7qEQzgNes0TwSL9mY4NcPNvWaiO0XVqGUX+SPj7+I32P57r30ZXPjpqEilgoH+WweVyaxG5oWTikoNwuRj11RVklQxJBlI46VaszAUoQFFWiSL5m66TW+2naH5z8k+dvJIWSR3ztWY6sgkuKNDUiHDDEmLIEijFp0xave/5kNmu26ybTr7HX4nbflXjlP73Km0k98hI3GMYDGQR+TKyZbUXh+9LEgckLRGXx5lBdgJGCeqjygx8Vs+EhOVWzlHrnrXKyZJRs5Q7/W3dtV12jpJZsuql3O7AYxjA88sWFABRM6dJjwoMKPeljJks9bDRQkUNbKvCJMmReKotGA9g0RWdPXrpZJs1bJKrrqppJ9daqrD/AC0wizOTck8zeS/Zvq2oYycKAC93UvV8T/kAw+DLpsyfFcJT+woRKrL/AG59322fdxqOqNtfa7VYuSHH1+kBP4m68prWnmfz9Wo94eF1Pdl0qCrydRx4uNJHIVEBzI3zBOnzdyn3yyku3T0mu07auUXq0Ya8OO00E1Gz29PzLcXl60KqgqXlWf1dKarCREAHhQSti4rbKLxQOLbDgUf3F23aJSKchRjZsO/l8uLGEBGm2mTti2WR7S5COtC/KJ5Z9O2tXVKUkbkUosyWxKeTieQsnHiEZk1Dha8dt4+dF3CHLJcOY1M9zggNiTaKcbdOO1en5dR4kMSEKnLFsq487+JH9Y/Jv719lkowNCALxg9CxCryAx2E+hf8KKMerqfPxA9XZEW9ey6GwlysuTatOjTzREtpUio6VVb2j4DGMhvdnyFeJvOkn4hNzel6rhUy31rTqJrH9GpKHS2t9jt7IwcbRME4wMQ71127KyJqMGM0El3Lt2i2QWVTCZGMxaGzSF2VFAs3gEqjU7hEoYckY/K4mZGySMnxqvXaWnYoyJcPBpJp12mqj0q1cKp/cTUS63rvjvnUKP6LL4//APkzw3/7vNP8z4FgGaRu27R1PD4ywYx4jYVn2MacRapqmjxMCLktgSNmKeninLd9IyIsOFjUWjw4jJppKSbrTMABYK7Qbljz4DHzMehvxh+DQ5EeXGecYiyJCnrUkPeImJnpZo+YrpumjlLe5NvWlUHCSaqe963rXfGt71vX9WSvtWYRisa9m9vStkg4FVLCJpYL51tFt0+YiYvGiJk70PdOOf8AeazgUwcoKKcKJcqJ9bTW62lvrWBDzwz6SCeiZV60ak6TgdS3bR99PKUuwrXJ3+fIxPjkVBD+whRpZ7+uKrk8vWBDXKkbdtZNDRj0EsN0m1T0OftE0rB8pv8AgphR0d4KFXTMkOUbA9e3Fcvquc9f6ztRYrZkydMRbnpwtrSy/D+LRkAUS773v6cv9/19d7776uQwOSr0ZTX8QFYftM56sqmiqPhrqJspFAKD4kE1oqxHlYVmSU/DeKRzU8Okx4GZzlil24nEvBhAkiLNSr+KdvEYfw2AIZTW9AfPr6C9B+WmHvNtWzzzVVPoutr1l7cCQ8+sXGidWu3h2NuVkYFvmTFk0Cv2uURLf7jJZ2s3dP0O02fCzfqsxgVX/MZSnrD0l4uM+fvIgYUVltv2FCYdZrkrJwMUTA0sooTLzAyk+Pu2fDxP93ExcSYECu1zhCNFTiQ1k/U57aLae+Sr47p3a/xMi/FfmQUykE0qKP0cPgEbcFg0WQmaVVLBRJNmoYkL5gDHkiofkqcSWMlGLRyZSSSeEUNue3GrscYGovP7GxxdE0wLuFqNY2wMquADrLaBymjQtCdsYqKayvhgW0g24ftv3tJ7tNymltFTW/qis4S/Q4V27jGBAGn/AFpMmnqqe+LPTAmKRu2tB3lpee53CxhyP176Fpftyvy+5ACZIelJAJadVqcaD2VE9yczy/bppToBppHn6o8RP7KQfnZZyqtfONPe4q3U/Gsfwl6Hri3GSuuktdFILMzLOr53EFeFE+9qjpT3J423NJp7562HZvvrvXH6u07m4dKwk8iMVnMZd6fxyZxwHK4++5/Rvl4EkQxqXFO+dp9qJ704YPEFtfoUU4+nf9nvrn6dbDI8YxgMYxgMoZ/iSIGvMPizsg4gl93/AEYWdT08V1rj9ffCDqXoV0orxrX9evt6n+ulO9a3+hD7vXX04111zfNld/y0Vket/wCNv2PBYuLdG5A6pWQyIUHYNlnpEq6gS7Ke8jxbFsmq6flXnEZ7bi2DVJV0+IKNmjZJRdZPjoIEedPVs8f/ABH/AB9Vx5+dovPUHpeqI/5spd2ok7dt4PuqxzmvLTu49y052pxH6Ni0VeSN6qqonw8lHUWA9ddrG0+Orl/N9AQLy7Sdf0ZWzRRCMwMImx6IO+ulTEoPO1VCEomkjeKKLLEJNMZE7JSSQP1llO3JQk5653yjpJPior4MvOl9CvPFZekfX7gm/txWlYhQnn2MyGPso4QpvyfBVOu4WD0FHtRzZrIZ99sWUkBp6M4lJ2Kxmu/5mJECrV6r3dBcFmR+lqms64ZZvvUXqqvplY0i+2okkr0FhMdIyQmmh2t1ylyuozGrJofc61xtbrjW9/TeBsXGUb+VIhOfcHkY57Q9kWtbcOc3E1mFrU7CKkva1KdgnmmnA/JBSvHDVhVEsrhrOZmmyF/zsfl9lOZV28QdMxTdMAJVOh3sA9+o/Ttp/C5CvZN525PgDsRQc+gNZtqknc0rS2bh9dGbjllF0lZMufQRMITNAISxHReaM4s1P7EzqX9yiRTCNOxQaOKqh1iZDv3t6/AeE/LNlelj0Y7nXcJ5jrCPwJA33HHc2lEqkoqMhI60NJg5KoOUXcFOnrh3wBKbbMGLxxtopyl19K/vV849MwqCfEX48VtiSMPQ1/3DSwH0LYcQNFI9MJRBqCgAqa+lXY8wCJN3SCsjdINujz5Fftk9ZPH6CjNNoS+0hpf5aaDhl/8AtP4+PM7uU3YZcel7tIWDbMCaXtb7KshNM+c4NoobcA6zYS5Cu4UcPdOO1ms1DR9lLejg1+uPMt3pB3t0HQuBfECYMKSLCuwRQgJHPiQRRzy97DkHbNFd4K7ecIt+HfY9yoo06c8II8r7R2ryinrvXHPrZrmqayEVBBxUCByOxpWNELEl0TlrWVN7bnDvomRckluCs7sQ5IpWVRbKuu2w1AgWcJDRyTYcx4QZNUEeNjYEBbK8E82RPJROufZ3vqv9SgoqV3DK19GqRmBx7pbhPnthF4+rESXQgXz1xtVJjp6umh2opyjtNH9CXGEc/GprW9b379+THrWt/wBfPXqrrWt/82/0wXnr6f8AR1rf/Pmb2V8X/hm4J5KLNsake5JOJmUVNSU4pZ9xjeiJJbhNPtfQ8NYI4Uy40mkmmk1HsWjRBNPhNFBPjnXOYP8A0O/xyf8AJ1/7XL1/8TsD3Gvx0sG/0+77Y+RZ99P+H8r1lJOP1f8AT+EEZ/8A8/TJtVlA06ygwCCpS6eTtIAk8RTldmyd1M5yW5eEnpLXR+TvU0nZZVnp5+3s13PH3khrRk277V6Q2r3An+h3+OT/AJOv/a5ev/idk6qiqKvKIruN1PVMe/lWARFMijHgH7scOft6ZYwQPEOf3WSEjBp3+QWKv3f1fEXPSX3/ALCG02ySKKYbIytj1r7d9E+eLRZwOqvjx9Aep405iQmRLWTV5gSPjrMqQIGGbqKLokgztXoqLbjWZByqk47Q6bmGfOv0q8Lcc2T4wKOf6VP2p/cvexv8TRn/AC7j+lT9qf3L3sb/ABNGf8u5dXIJLHIkMWNyqQBIyGbb1pwXkBVgFGIb611vnSz8ku2aJb61z1vWu1ed71z1vX9Wt/T7BDoSTCmZ2NmRUgCEUvvjzAQi0KinyP6uuPvMyDBZw0dJfr565+4gt3x+rnrn6/XW9aCv3yB7Q9Bej7EPwy2fAN7+TwAeFvZOwnlqFhpAKfMNTgAUjER6Q0Ky54KOWRd8Z47Xe87/ABArrlFq41tVVrXt/EiO1nHl7yfD1eekAU296UqIkJDvf+9ER6URs5bTNzzre++tOFeuX/H04751yJV+utdb4+vRBlFv8RRW5WafGtKZuEQVdFfPtv1Fd7VBDnXSm0xR5xAiDn6fTffKI4XYT0m6UT/tItGS63X+rTU1sL0s03M5nS8pmnXl2dOgEillk1dLZi5qs4Hcl2smqsWUDw+WkSaSw9wB7DcFJSIDuWZF2m4dqEudNmq6aa/aOfwyWhJ9D4pOoy6/Ojc1jQKWx979OdfmBJGLamBLr6cdqca/IYPG6v05U751+v6c99a+m987loyb2iB+X65PaldefLGuHzD5erGB+PJvFoXtBCw5xFJ8CHXXYMrpeHmvxUrIIVnPCUVVkwYQ8YFJFygDEhnTpNuTdAw0p6m/hYaBnpOQSnyvdkno169TcvR1czcNux4AiS77UUTHDj/BMNM46EU30mlpV/3OnjDWulEkXaf22nGwv4cm+/TBdL2X4z9GSY3NnXjKeRWGR4seIOzRCJuXJqy4bKK/0ZKN0DLyPizFbdOoo3KfVwMaqFB6KTIegxHtLA5D8rAecBD8R8o+YfWFy+iVA/PMbriXee7MpyLx46Q6RaMnlrWFZYSNRaHRkQ6c6XMvOCb1Z5w0VYh9OHDlBfWe/F14NI+GqVlqNiyMXOvRl+WCaub0POgyDlASTnEjcOHnEeB8ue9KKgYtp8+RavumzHssVImzH4LBEigOZhZjjKP6DsGTfKL6X9WEz83s+DeOPJdlmfNtf13U1lWHTxC6LaBbbOrAs6xbEquVxCbEBMf6SGIQSEjTzEBwNOMzJpq7Kff5c5h8LFiW/dNG3xc1l2vPrThst9Q2XFvPTuemdHn7Ch6obhK5h7r9z0g34fGDT4EaXlhVNLW5DJGr+SvelDBkosoFyGQTtv1reldWHJIZE/j59P3FHgazFIbZMFknnVlE5Qm7FMCC7kM1lt0R6RoosnTtcUvyWCjnG3bBx1pvpHpLvqdmMDnb93eur3mH+42/fvjw9TV9/K/vLzxMQ38zSbza4/nc+E/m/wDbq8j/AOy3gR+xJpL+Ut+1OC34IVP8Jx+eRa/qS/XPL/d1elf7q72Z/i7yn/5gcfJZ/wCwB/8AMy8q/wD+8yzLA1NSdiyy06/HTGa0zYFCn3j0o1XruzH8DIyhkgweqNmxJVzXcvmoD8IolxpyzTULIEeON9fkMEUdtl3W2cZqa+7FcVBRtyWuyFuzr6tatn08Hgh7VZ+ROkYnFSpweEGsG/Cjh+RMPWKA1gxbJqOHjx0i2QTUVV442EOfRXlXxD8uVHC9TVvuwImEk81Dwe1oUq+i01h0qiMkLQSbt4ucLB9dqNWsljxIOWGlBJiKmHYlB7+E/wBsxz1Lk8+Qb4Trc+KCC69zeVPVMqKBKtlUW4JK9BnkFs+CJyaSD44BKtpJGCT8DKxK8hJBQ5xoRGRZotyRSQUYlm7lRlq5D42b29DfGf5hh3nr395l9Djgya8gsmv7pqSAlr9irIZaBMlZEpglrjqvbHpVXU9js4kJ7lZImIfjzKpVztB4zaCdOyGzvUqNofM4GrjzpUVZWxTniRzM45Yvof0JdcEOVeYskJDTPTwPVNKV/KORkxM9mSLdMoRnxEcKAA3I8f0goRXZuRRMLRPN9oT/ANBeFqIuQnJWtbWPbXm6s7EMzBUCMLDo5IpTAwsgMyRCPPFGIhwM6cOnZNiyc9IMkmS7f7qf209pbjJ8ON7ei/T3kd7f3omw07GXsO47O1URZCBxivEkach5ZCCAelQsaHs+FnpWTRqXm3Dx85IL8IkWg9Fx03YcKLZr8ndjiPKHxiemzEMa8RxrGKGXp+uGAr7uuwRCfoDKXgaIZPXajjtUA8lIpwx43tbrjgdyovpRJNXe6ob7qgx8U/jbwOUqu2ryc+llr487VELjEntiWOoLIRc1Scv7NpzqkQpMHS6cN1pEihwf7gCs54OqtD5CaO5WVcGXIZ3/ABB3rq3oMM80eHPP7+ci597CmCwmZkKu55VspeuUzAOJJwmGN+jIHhQpYheSumnfDkuHZPGUddBHxZiNMEHKG8YiMsAF5DJePfFHxW2bVASSV0Trp1IPW5DzjWVccfvoLceJT2zWkGtW5LIs6RveHTssYbKQZ08NPudIvH7dorvSPx+WLyXZxb0d4d+RGl60P3Ud8hWIJStioYSybkbHl9SOZM0MbLV6IW+11JJJD3bg8s2jaTjl29UOIPGmkUR5BxxKNz8glkWs2XjfkvxR6gm88epKtGcp9D1hI/LVGRAh+Mty4dzaX2g1GS8unHiGk0CceruEyguTWRcsR7prv9L/AIDDCviT1jVNG+AKj8n+iA8ZQ8kMGA61RczKTEFGL5TFRFizEtj/AFGh0iKrQ5nM2rkmQgPeh3JaLEVo8NlkWdtGJZCT3i3yKl5Yi9jlZTM/9KV9X9Yxi4vQdrcBU4uPmE+M72kgyjMTQeP20WhcTE8oAoyFTeOltIJOST1x08JLpIyEpwNaUfrGGibsmgCwrXbCddzuXRWNaiEYJn3blw9cox2PbdPVmIMTw4SCilHrpUk/YjkCRPfJF26452ZgMgD6XtOnbGuFj4HnE2vunpdYNIyO82Vp1fKEavBKQ4MTKwWSRRKzUymyCMoSavXZ92D4ALNmQluxkejDIgzYfon9mvrFqWqrgEN4/bVZ19aIFo8SINAliwyOTYQ1foKJqovm42TDSbNF4iqikok5TR5WTUST74711xzvQV8fDhaBe0vB9bOHkBBQWPwSQTiq68dRSNJxOI2JXMAkLkJFLQjQhvzyy/EmTRNRyUIj+dMC8mbnSbTWknfOstIz8rFiyGMmY0azajxw9q3YsGDFuk0ZMWTRLhBqzZtUOE0GzVsgmmi3bop8JIpccJp8c8c886/VgMhzffpi4ahmzWLQPxH6G9DBV4+xMKTyrz1FjY03fu3hJsvHlG9hWxD5D+5j0WLd26U2G4ZdIkmumzlffKu+ZjYwOdv5N/XV7z7w/dsSk/x4epqqBlv9G350+mMm82uo4B/At2Ak237ihHbwLGFP3R4zbhWf4Y9x+l+Ra9uPtNeV1055f7ur0r/dXezP8XeU/wDzA4+Yj/Zyeiv/AKR/9+tY5ZlgR/8APdxT+5Y8dM2D5vtnza/EmeBjCP2yVq0oRkbPpi3ddGBHdZWBOkUWSCy3bJfkxsWr0vxrbLT3jTnbWQGM+aqqSCSi6ynCSKKfaqqqnWuE00k+d9qKd99b1zzxxzrfXXXW9a551ve961rAhfdtTeRPkbrm3vPVlDhdqx6trB3A523aJlwx6tLWFR8JJ0v5ekvTNk4GycYAlgV52/BOXo9ZiY7EE9vGjkkM75Tvev8ADlE/I1W2T608i+l5k6RooKatVWFy8WoIsAHGIigocLGopaUDcD9KnYyIauyielofH+FG7FZxs4yVT1ypYn8fF/eqfJv+nS+fVHmC+y/nT3vd069YwKVVLCS1pzCkScyOLhGkduSoo0xXsKMhZJWcfgJ2PSAePNNBwtoHDEGSRp4VbApG+pr+tP5QqXOeTfD9UW9GYbdKqkKvH1TetUzCpK2q6tE3DJeXDomEnbKPSm0J1JGWlY4mAADkWY1o9dKFDAzbhF+xCVfw4eirO9U/HJ5zua4iLo9YpcbNYzIZQ8TbpuZb3X1jS2BsJI5/FQboqkCI2Os/3hzpHnp2bSJOVN9dq9ddWdZEgMGp346fFfTAcg7Y035Oo4sWccp74VMlREAjr06aef69blN1J5aQbvn3af3eE3kgMdJo6T5W445q/qKoPWvyE+IpH6rkt2zSqPSvpYIlLfMcQj9x3nWdGeXa5WNbbwhyxjdMyyFELAnkghW3UwKT6wEJf09MGAYxqDGw5oXjpcNl/PF7isrxH4rTI0m9cB7hvGfjabh0nY8cqlYYyKAjx6TSoEjvXfXUgRFhNAQLlJPtcUXkLM02/wB9DG/PeofCPdmeWPMQGr6S+LX1Cd9CSAKm+ua2L6f+bqrCWvbh5JZ9NZtZFjkr5nNpGo11Jnj3sa0/ks8USjekWrEam73tJbP/AJdPCN9eo/GtBKQZcfbfpXyhLa8td0HX2wCJXcTjUdQFWMMFduG7VgNKyZ8lqRiWCqbNm76Z9hk0eHLtklzJAX8k5ObjmomqvCfu+V2s5atEHsCmdDlaSjURkbpNHpQNObgtt1F66Fs2P3fvOjEcJy/lZhrh6KYEtOG6SobU+Obysd8deVojUEvfRx5OXkkn1kztvCeHLeAgpbZ0wLzIpFICyct2W2cOieiiEdC6SGik3yQ3stsWPWIqtUpz5oPzc09GJVqkS9TFq8dW1IjheQPY1VbB8jBq4BP+0OAFeCTZbrRiaOADFvpU3MibZh2YPECfI8e1CtRfGb8wGU9Xv4i9v3lY3qmGkPXAgT5J9Sag0XIRhZiWNTisafFxfYmya5q+KrCGcQjx203TswLkVjv5ScUUjhFJbiGpmx7ZzlwuMDDq8gESqmAwqsYCGbR2D15FAEJiAFpvvpsHjUYFNQoQcl2r12sry0HM26H3l1FF1t8bVXUUV7776gp6+9q+hfONlhIPU/x9X56ujhSDjJU8sSrDAcfHgxp8ekolzC3iJAU+W6MjmIMcbcK8LcpdMpEP45T13x313Y5jAo5/pU/an9y97G/xNGf8u4/pU/an9y97G/xNGf8ALuXjZ/Ouueeeuuutc88631111vWueeda+u+ut7+mta1rW973vf01r+veBR1/Sp+1P7l72N/iaM/5dx/Sp+1P7l72N/iaM/5dy5aP2FAZaSKBorOIfJjATXPRoVH5KFMkhHPam0uNlGI165dMNdK89J87dpJa6U53xr69a3rMwwKOf6VP2p/cvexv8TRn/LuWmeZ7bnN5U3F7LsekJp50l55xIESdRWE6bvJZGUw8hJh2C5Ny0aMmqnB4exbH2P2Uf08MCbbjvvpblT6b6xgVofMeEHSD4v8A2qwKLIoNkKWLm0u19b3x0RjRMVIxCPOueet/ecFhTJu339PppdVPfXXPOt9ayv4ojRE/8a3h98URVQcoea6sCpcLb1vvodG40zjohbn9PXWvtORItk4Q19frpBVPXXPPX151GP8AiAbIbQP4ub2ApbdrSi4zdX09BxbFuo6dnJDJbDj5ogJbIIfqcLOF4XGpau3QbpLrOV2ybblL6LbUTse8l1crSPlrzfTjhFRB5VtFVPACCavH219k4nBQQQoo441rWuXK5Bk5Wc6+mv8AXqKf1a/4NBILGMYDGMYDGMYDNaXPU0RvmorOpOfJPloTbUDlddSvgW65YlOQMwCPQJNYU+7Rc8Mijdq+UXHPO2zjhq9SQX6QW0ntPrZeMCpAT4I9HEvLkK8Izf0NBB/mOJRobVMilNa19IY7ftn0NGkkhcerl4bfy99C68LGIyxHxuyZmGAyleWCVTCIQPDnZPsjxvD0/wCCIJcXlmufNlS9BqbF0VOKcsKkWrYSoVh8eMUtIGZaPh5ECUcadSGPlR6ZIaZ/KfKEnbsj++vHT4gkr+VP/GBTlafhf2TcPoOqPUkjvqjo/Z9YV/dNRxePRqvZurB66jlxx8XG3lmwxwRlO5OXtgeh0feOEjBAXGCDbiLgEExnA0wZO5zP/j4moD0RQPoXzNY8UiZuivIhHx5GAlvBJDOwsbjCZISvGLHDtBBoGqZmYoSiZDGGJN4NZyXhcMu9JpICl2BC1TGBrKnKqAUlWsWrKNED5ofG2z7t3I5YR4LyuWyM6VfyOXzSVEkWzFo8k80lhc1KpCsPHixWzJh7oSJFDdNRzbZuMYDGMYDGMYDGMYHNXVtFeg/Tvy8eq2fvvxs2t/yzEWZnjzXPbhAHZBUUHj8eOMGcGHV3Gy7vmoJc/sgG9IH5927hp+aizbXho8kjES27GFIp1mQK+If4ihPyh5CYkIv5xuYAAc25Qce7Iq1uDWLU65mr6WC45tZ6NjL+NEBomSMjTJqwWYiyZeJoLtgBt02W6hPQ0I9Bz2JChHnS+or56ljc9w+My+U0k2vNImA5GEW3QFjHH1h16yEuVCToeU6MquynfPIzTDhjyk8cK65rvBMiq749/lNs3zd7YGEp57d9KOmbuD+5TEkVkgu2h9hG1FIlEGEG7CN1qVWlrpinHVGLErIh375GxkT4JNI63BddB1m5iM/gkTtGDTCtp2FZyOFT2NG4hKwJBLlVmXj8hHOBRYe4461vX6HLJ0sn+rX07T660on1z3zz1rLsYFVXx8Epp5gcuvjevQht4dpcUq68n2a6QVZDPQXmJr1r9hbj11E+WOrPpBJRKDWVDGzjskODtYxLWjd7GTTU66tVxjAYxjAqbqv4+7koIP6Opejb5jkFoH0dd9gXQ9kKkF/d7+q/m1IwHHTuHV+WcPE67dqqnxGncPm0vix13EALtUU5jcnItRptll3x7eDZT48iNcRebTmOSxGkqcL0bVzSFsDIgL2GmdlvrYs+wpEOMOHG0ZrYsjShbIgOYKOhwhrA037Yo9VlDoeEs2xgMYxgYDPqtgFoahmp9GWMm/0eT+N2lC/zlHae4/P4h076jcmZ7aOW2+nwrb95pBNxtdp3y4U5cNlud61rPsYwGMYwGMYwIse0/KsW9qebLG86yyQloc3maAQgBmgJs0fFIbNIfIRUwhcmRGvt8NS7UXJgY1UuEVcMNnAnRIOkUELPkyjPTavjib3RflIegfW04hkwc+aE3Zak6nrCNFwEBFWgYHNB564ZkWkpgudl0k40zTVgkeQbAAFf89fr76lptPmQ7sLxgMYxgMYxgMYxgMYxgMYxgYDaFWwC6YKdrO0YyxmMEk2h3J2OElHaTIjoQXYHhv3VGLlo742zMCx79HpFwl1pdqn+rfXH6ues+xjAYxjAYxjA1VedNwr0PTdnUXYzd64g1swiRwKT6GOEWhZAVJBjgau/DvHDZ6gyNDNr8EQ71Zm7SaE2rVyo1ccJbR7hLU/mP2nV/nuvPK4H0pUkVhVXxEVVUfu6PU+dLXavVcUaNo9D0BMfkc4VrOIWSLh7BiIXmpQfZEcUJIbMp17z1vlpzZfjA8CKR9OJxeNxZEqfOpRoAHj6RyVl3UglBlMMObDuCskPvuunpw+R5baeGC7zrp0SIrOXrjraq/e89/GMBjGMBjGMBjGMBnP188DX23Jxfkyv/MNCy70LUchsiTlvRNdRfU7TDzJsCSibWDQq0StcFIxKAdam+Dswfk1eZQzAPyQYepJEFWwho2f9AueYablHYcs0BkkAxp0MftxBh0O0XbCiizVVMeScCdu2GiiDF30i6WHbfstPU0um23bb7v3uA5NPny8t+cvEPmTz/wClvI9exjyb6Fht+xOHxWWUSg2ruQEgxeEz08aYmXMZ6GrSNce8jQtzo8S5fvtJcKi3S6g8wsh10seR7DnNt+V/N9p2aLUC2JY1GVVN5wLVaaHKNJVKIQEMneexv4zL9r6UJPHC2xe2jfob9z8HpLjpvvWc0nysUvdnnicec/Y/yKzzn5GfLVXzUdHHlSV/GRflkPWszMutlAsxf1tyetAXcDU92F0MLImJlGdq8t2MZf8APUeLLOGXUVRdzVt6GqCvbrqAzwfrSx40xkcQKcsXIztUW412hts5GPEW7oa+GukHA0gOcIpqsXzRw175+qX12G18YxgUeyNiv8nXu6tFxQBmV8MfHtYRGZr2Mt107B+g/XgtqsHGxuFaVTVEyCEUU56XWkEjY8uWjqX6fAEXazVXXfN4WMYDGMYDGMYDGMYDGMYDGMYDGMYDGMYDGMYDGMYDGMYHLt8V3pH1FV3ub3JTvyR+wI+HIjjfPNf1ReEz6ijw09dnuFQM/olpJVEYYyq0xDNJaSi8Mkr1zty+YP3IJFwiUKvoieyIir8o/wA7fnp35Hd7sCsfMACjRN3XnDVlntcxdxWFtza25P2wnw1PYV8b0Ok4yJxtMSSerEZYj23ZrfiDCTod16WZSFLXUxQF3JUNX20MaprJNh1mQCKTxi3Sc7424TQaSkSVbpJr7TT2twmnzyrvjjfeuv08/T3YHXFeVYB5i1YwKF1zGOHHbziOQOLA4gB4dqIoN1HXIiPsRw/lx23atkO19N9K9It0Euut8Ip88hmeMYwGMYwGMYwGMYwGMYwGMYwGMYwGMYwGMYwGMYwGMYwGMYwGMYwGMYwGMYwGMYwGMYwGMYwGMYwGMYwGMYwGMYwGc1Py5W37ror5CPC86r2/NUT4vKvYSCncllBEgJozicIWAdWnwK8VBqBRJVlKa5fA2MYdSZMGG5cpO+gJcIfDupC36Vs8s0ECyQU/AyIQLPgyjftoTDGmDQoKItFPp9xq/HPkl2bxup9NfrRcIqJ9fTX6ud/TA5v/AOIC9S0Pa/hnjzVS1jQy9ryv6yaza1tXFNSAXaMtfs43JWUsInkxMJVPOUWCjUXwJYKrabdlXZXlMZ+bw1IcoWd/Et5qsDyN8e/nKibV3tGxI1H5MdlgrT/oglHCdgTuUWBqLJrfp0jwtG2snbhySTPpVjowzIqM3LpBXhytKuvvM3m+pTi8mqrz7SNZyRz25UcyCvqogcMOOO3qfSLztctHAA1+r27S77Sc9KOOtrp99cK77563re7sBjGMBjGMBjGMBjGMBjGMBjGMBjGMBjGMBjGMBjGMBjGMBjGMBjGMBjGMBjGMBjGMBjGMBjGMBjGMBjGMBjGMBjGMBjGMBjGMBjGMBjGMBjGMBjGMBjGMBjGMBjGMBjGMBjGMBjGMBjGMBjGMBjGMBjGMBjGMBjGMD//Z;" vertex="1" parent="1">
          <mxGeometry x="80" y="360" width="200" height="40.55" as="geometry" />
        </mxCell>
      </root>
    </mxGraphModel>
  </diagram>
  <diagram id="uSZfAaR4Qf1i-cxhgKYl" name="60度坐标系">
    <mxGraphModel dx="954" dy="558" grid="1" gridSize="10" guides="1" tooltips="1" connect="1" arrows="1" fold="1" page="1" pageScale="1" pageWidth="827" pageHeight="1169" math="0" shadow="0">
      <root>
        <mxCell id="0" />
        <mxCell id="1" parent="0" />
      </root>
    </mxGraphModel>
  </diagram>
</mxfile>
